<svg xmlns="http://www.w3.org/2000/svg" width="228" height="257" fill="none" viewBox="0 0 228 257">
  <path fill="url(#paint0_linear)" d="M138.218 77.379c-.062.006-.124.01-.185.009-.981 0-1.821-.802-1.915-1.874-1.687-19.023-7.458-37.098-16.251-50.896-7.788-12.225-17.06-19.517-24.804-19.517h-.026C66.82 5.16 60.917 74.79 60.86 75.495c-.092 1.14-1.018 1.983-2.084 1.886-1.066-.098-1.845-1.102-1.758-2.24C57.258 72.113 63.3 1.026 95.026.96h.034c9.154 0 19.352 7.768 27.987 21.318 9.154 14.367 15.158 33.134 16.906 52.843.101 1.134-.676 2.153-1.735 2.258z"/>
  <path fill="url(#paint1_linear)" d="M20.476 220.695l37.146 20.213 22.506-74.232L43.044 67.16l-10.516 2.77-15.956 142.925c-.36 3.236 1.199 6.368 3.904 7.84z"/>
  <path fill="url(#paint2_linear)" d="M80.128 166.676L43.044 67.16l-6.201 1.634a233.04 233.04 0 00.1 32.189c2.486 33.883 10.743 43.311 6.742 66.948-3.325 19.655-10.588 22.32-9.953 35.545.692 14.401 10.038 26.462 21.149 35.944l2.741 1.492 22.506-74.236z" opacity=".3" style="mix-blend-mode:multiply"/>
  <path fill="url(#paint3_linear)" d="M43.044 67.16l139.885 7.62 44.455 151.426-169.762 14.702L43.044 67.16z"/>
  <path fill="url(#paint4_linear)" d="M182.929 74.78l-72.951-3.974c-1.231 1.937-2.862 5.094-3.165 9.118-1.797 23.806 47.294 31.514 51.693 60.736 3.349 22.248-17.255 47.919-35.639 59.356-19.369 12.05-32.494 5.947-45.594 19.328-5.756 5.878-9.261 13.228-11.345 20.847l161.456-13.985-44.455-151.425z" opacity=".3" style="mix-blend-mode:multiply"/>
  <path fill="url(#paint5_linear)" d="M85.95 80.793c-.875 0-1.666-.648-1.874-1.598-.394-1.803-9.494-44.42 3.337-65.335 3.678-5.995 8.816-9.654 15.271-10.878 33.168-6.282 53.59 70.284 54.443 73.551.288 1.1-.309 2.244-1.333 2.554-1.025.309-2.088-.334-2.376-1.434-.2-.767-20.302-76.243-50.068-70.594-5.447 1.031-9.61 4.001-12.724 9.076-11.923 19.444-2.892 61.688-2.8 62.112.244 1.112-.4 2.223-1.435 2.49a1.816 1.816 0 01-.441.056z"/>
  <path fill="url(#paint6_linear)" d="M85.963 86.89c2.974 0 5.384-2.59 5.384-5.786 0-3.196-2.41-5.787-5.383-5.787-2.974 0-5.384 2.59-5.384 5.787 0 3.196 2.41 5.786 5.383 5.786z"/>
  <path fill="url(#paint7_linear)" d="M156.177 86.354c2.973 0 5.383-2.59 5.383-5.787 0-3.195-2.41-5.786-5.383-5.786-2.974 0-5.384 2.59-5.384 5.786 0 3.196 2.41 5.787 5.384 5.787z"/>
  <path fill="#D8DEE8" d="M193.635 147.644l-43.431-42.376a3.044 3.044 0 00-3.371-.643l-23.177 10.125c-1.953.853-2.627 3.462-1.362 5.279l37.826 54.194c1.046 1.497 3.011 1.828 4.433.741l28.784-21.943c1.672-1.277 1.818-3.892.298-5.377zm-49.663-27.479c-1.463 1.057-3.77.124-5.152-2.084-1.381-2.208-1.315-4.857.148-5.914 1.464-1.058 3.77-.125 5.152 2.084 1.382 2.209 1.315 4.857-.148 5.914z"/>
  <path fill="#F4F7FA" d="M193.635 147.066l-43.431-42.378a3.038 3.038 0 00-3.371-.643l-23.177 10.127c-1.953.853-2.627 3.462-1.362 5.275l37.826 54.194c1.046 1.498 3.011 1.828 4.433.741l28.784-21.942c1.672-1.275 1.818-3.89.298-5.374zm-49.663-27.479c-1.463 1.057-3.77.124-5.152-2.085-1.381-2.209-1.315-4.857.148-5.913 1.464-1.057 3.77-.125 5.152 2.083 1.382 2.208 1.315 4.857-.148 5.915z"/>
  <path fill="#26264F" d="M134.946 109.18a.354.354 0 01-.197-.06.351.351 0 01-.132-.158c-1.504-3.549-3.533-6.614-6.031-9.111-6.844-6.843-15.681-7.918-24.228-8.959-8.505-1.035-16.537-2.013-21.335-8.785-1.214-1.715-3.101-4.816-2.089-6.304.406-.598 1.216-.873 2.407-.816a.357.357 0 01-.035.713c-.636-.03-1.464.032-1.784.504-.538.792.277 2.947 2.081 5.49 4.617 6.515 12.495 7.475 20.84 8.49 8.667 1.055 17.628 2.146 24.646 9.162 2.563 2.563 4.644 5.704 6.184 9.338a.373.373 0 01.026.172.36.36 0 01-.354.324h.001z"/>
  <path fill="#26264F" d="M138.656 116.351a.35.35 0 01-.33-.221.354.354 0 01.078-.389c.03-.029 3.004-3.04 2.989-7.057-.009-2.467-1.131-4.816-3.332-6.981-4.672-4.59-17.068-9.91-28.005-14.599-6.676-2.863-12.98-5.568-17.122-7.9a37.418 37.418 0 00-2.953-1.493.357.357 0 01.294-.648c1.039.47 2.05.982 3.008 1.52 4.107 2.316 10.395 5.011 17.052 7.866 10.996 4.716 23.457 10.062 28.229 14.746 2.346 2.306 3.54 4.828 3.547 7.495.012 4.317-3.068 7.428-3.199 7.559a.363.363 0 01-.256.102z"/>
  <path fill="url(#paint8_linear)" d="M132.88 241.462c0 1.901-1.347 3.536-3.002 3.634l-116.556 7.126c-2.208.131-4.701-1.738-4.701-3.948v-81.627c0-2.209 2.553-4.066 4.76-3.975l116.497 4.994c1.655.069 3.002 1.68 3.002 3.58v70.216z"/>
  <path fill="#fff" d="M193.635 147.066l-43.431-42.378a3.038 3.038 0 00-3.371-.643l-2.064.901a30.088 30.088 0 002.58 6.449c6.416 11.771 16.937 11.264 19.372 19.432 2.156 7.241-5.074 11.125-6.027 21.284-.476 5.076.611 11.829 6.433 20.31l26.207-19.979c1.675-1.277 1.821-3.892.301-5.376z"/>
  <path fill="#D8DEE8" d="M154.663 132.642c2.379 3.937 1.888 7.202-.008 8.525-1.996 1.389-4.864.35-6.997-3.182-2.03-3.358-2.137-6.905.101-8.466 2.258-1.577 4.963-.09 6.904 3.123zm-4.797 3.637c1.19 1.968 2.51 3.062 3.398 2.444.866-.606.521-2.175-.756-4.288-1.155-1.911-2.407-3.133-3.358-2.472-.907.633-.421 2.435.716 4.316zm9.708 12.649l-4.234-24.698 1.654-1.154 4.214 24.716-1.634 1.136zm9.249-15.057c2.379 3.936 1.887 7.202-.008 8.525-1.976 1.38-4.844.335-6.998-3.182-2.029-3.359-2.136-6.905.102-8.467 2.258-1.576 4.962-.09 6.904 3.124zm-4.778 3.622c1.17 1.983 2.491 3.077 3.378 2.458.867-.605.521-2.175-.756-4.287-1.155-1.911-2.389-3.149-3.332-2.486-.932.647-.426 2.434.71 4.315zM160.484 162.594a1.69 1.69 0 01-1.473-.891c-.494-.873-.235-2.011.578-2.542l20.917-13.646c.813-.53 1.872-.251 2.366.622.493.874.234 2.012-.579 2.543l-20.917 13.645a1.627 1.627 0 01-.892.269z"/>
  <path fill="url(#paint9_linear)" d="M135.041 241.596c0 1.909-1.355 3.552-3.017 3.651l-117.803 6.987a3.778 3.778 0 01-2.85-1.014 3.773 3.773 0 01-1.191-2.783V166.42a3.861 3.861 0 012.506-3.628 3.844 3.844 0 011.535-.24l117.801 4.889c1.666.068 3.018 1.687 3.018 3.597l.001 70.558z"/>
  <path fill="url(#paint10_linear)" d="M135.041 222.368l-124.86 6.41v15.02l124.86-7.334v-14.096z"/>
  <path fill="url(#paint11_linear)" d="M47.031 189.674c-.139 9.321-5.97 14.166-12.448 14.141-7.067-.028-12.732-5.45-12.598-14.355.128-8.465 5.461-14.496 13.375-13.904 7.678.577 11.787 6.511 11.671 14.118zm-16.777-.178c-.073 4.862 1.517 8.396 4.623 8.454 2.99.055 4.48-2.993 4.557-8.094.07-4.612-1.11-8.25-4.376-8.446-3.178-.191-4.733 3.437-4.804 8.086zm6.558 29.966l22.508-40.775a2.275 2.275 0 013.23-.812 2.27 2.27 0 011.042 1.916c0 .381-.096.756-.279 1.091l-22.259 40.767a2.269 2.269 0 01-1.898 1.185l-.25.011a2.28 2.28 0 01-2.094-3.383zm38.513-11.492c-.131 8.633-5.132 13.357-10.681 13.601-5.968.262-10.783-4.499-10.722-12.704.117-7.803 4.66-13.602 11.417-13.421 6.575.176 10.092 5.478 9.986 12.524zm-14.296.567c-.129 4.49 1.224 7.687 3.877 7.606 2.556-.074 3.834-2.955 3.906-7.673.064-4.265-.884-7.574-3.675-7.608-2.773-.033-4.043 3.386-4.108 7.675z" opacity=".15" style="mix-blend-mode:multiply"/>
  <path fill="#fff" d="M48.119 189.245c-.142 9.321-5.967 14.17-12.453 14.14-7.068-.027-12.733-5.449-12.599-14.355.129-8.465 5.461-14.496 13.376-13.904 7.683.574 11.79 6.507 11.676 14.119zm-16.776-.186c-.074 4.864 1.516 8.398 4.624 8.455 2.989.056 4.479-2.992 4.556-8.093.07-4.613-1.11-8.251-4.377-8.447-3.178-.189-4.734 3.44-4.803 8.085zm6.558 29.968l22.504-40.777a2.274 2.274 0 012.163-1.172 2.277 2.277 0 012.112 2.276c0 .382-.097.758-.28 1.092l-22.26 40.769a2.274 2.274 0 01-1.897 1.184l-.249.011a2.28 2.28 0 01-2.38-2.221c-.01-.405.089-.806.285-1.16l.002-.002zm38.516-11.491c-.13 8.634-5.133 13.357-10.681 13.6-5.969.263-10.783-4.499-10.723-12.703.118-7.803 4.66-13.603 11.417-13.421 6.57.177 10.088 5.478 9.987 12.524zm-14.296.567c-.13 4.49 1.223 7.687 3.877 7.606 2.556-.075 3.834-2.955 3.906-7.673.064-4.266-.885-7.574-3.676-7.607-2.776-.034-4.047 3.383-4.112 7.674h.005z"/>
  <path fill="url(#paint12_linear)" d="M132.024 167.441L15.58 162.609c5.256 15.574 12.783 22.551 19.25 25.965 12.31 6.502 21.135.293 31.685 8.706 10.823 8.635 6.704 19.296 18.106 26.479 8.569 5.399 14.093 1.389 22.979 6.272 6.584 3.612 10.696 9.737 13.328 15.87l11.106-.659c1.666-.099 3.018-1.742 3.018-3.651v-70.553c-.011-1.91-1.366-3.529-3.028-3.597z" opacity=".3" style="mix-blend-mode:multiply"/>
  <path fill="url(#paint13_linear)" d="M133.401 204.769l-2.841-2.698-2.696 2.843-2.841-2.698-2.696 2.844-2.841-2.698-2.696 2.843-2.841-2.698-2.696 2.843-2.842-2.697-2.696 2.843-2.841-2.698-2.695 2.843-2.842-2.698-2.696 2.844-2.841-2.698-2.696 2.843-3.63-3.443v42.584s-.15 2.439-3.095 3.081l50.25-3.687a4.107 4.107 0 001.593-.454 3.95 3.95 0 00.819-2.417v-38.557l-1.64 1.73z" opacity=".3" style="mix-blend-mode:multiply"/>
  <path fill="#fff" d="M141.481 203.356v38.795c0 2.165-1.722 3.963-3.88 4.122l-15.933 1.169-34.43 2.519c2.948-.643 3.01-3.082 3.01-3.082v-42.588l3.703 3.448 1.943-2.007.81-.834 2.85 2.698 2.701-2.843 2.844 2.698 2.697-2.843 2.841 2.696 2.696-2.843 2.842 2.698 2.696-2.843 2.841 2.698 2.697-2.844 2.841 2.698 2.696-2.843 2.835 2.696 2.696-2.844 2.896 2.699 3.108-3.22z"/>
  <path fill="#D8DEE8" d="M135.678 225.887l-6.214.277a.78.78 0 00-.747.782v2.854a.786.786 0 00.827.782l6.214-.35a.781.781 0 00.74-.782v-2.784a.775.775 0 00-.243-.565.789.789 0 00-.577-.214zM135.67 231.403l-6.214.35a.784.784 0 00-.741.782v2.98a.774.774 0 00.248.571.78.78 0 00.585.21l6.214-.397a.778.778 0 00.733-.781v-2.934a.783.783 0 00-.513-.735.79.79 0 00-.312-.046zM136.496 217.975v-5.106a.782.782 0 00-.81-.782l-6.214.223a.783.783 0 00-.755.783v5.163a.797.797 0 00.242.566.778.778 0 00.576.217l6.214-.278a.786.786 0 00.747-.786zM122.767 226.469l-25.304 1.142a.78.78 0 00-.747.782v3.215a.784.784 0 00.827.782l25.304-1.427a.786.786 0 00.74-.782v-2.929a.783.783 0 00-.82-.783zM122.758 232.131l-25.304 1.427a.784.784 0 00-.74.781v3.221a.78.78 0 00.832.78l25.304-1.616a.775.775 0 00.521-.246.776.776 0 00.211-.535v-3.031a.783.783 0 00-.512-.734.773.773 0 00-.312-.047zM123.584 218.558v-5.223a.787.787 0 00-.502-.732.784.784 0 00-.307-.051l-25.304.911a.78.78 0 00-.755.783v5.454a.787.787 0 00.508.733.799.799 0 00.31.05l25.303-1.142a.781.781 0 00.747-.783z"/>
  <path fill="#F4F7FA" d="M121.639 247.442l-34.417 2.519c2.947-.643 3.024-3.082 3.024-3.082v-42.588l3.702 3.448 1.944-2.007c1.617 1.464 2.917 3.816 3.278 7.542 1.203 12.411 7.011 11.59 13.868 12.056 6.857.466 10.011 8.407 7.238 14.54-1.245 2.745-.739 5.511 1.363 7.572z" opacity=".4"/>
  <path fill="url(#paint14_linear)" d="M7.002 248.899v5.083c0 1.643 10.259 2.975 22.913 2.975 12.653 0 22.912-1.332 22.912-2.975v-5.085l-45.825.002z"/>
  <path fill="url(#paint15_linear)" d="M52.823 248.899c0 1.643-10.258 2.975-22.912 2.975s-22.909-1.332-22.909-2.975 10.255-2.974 22.909-2.974c12.654 0 22.912 1.33 22.912 2.974z"/>
  <path fill="url(#paint16_linear)" d="M29.91 252.08c-11.205 0-22.924-1.072-22.924-3.137 0-.114.04-.313.153-.313.113 0 .065.156.065.269 0 1.31 9.326 2.771 22.707 2.771s22.707-1.461 22.707-2.771c0-.113.02-.22.133-.22.114 0 .086.152.086.265 0 2.066-11.719 3.136-22.926 3.136z"/>
  <path fill="#FCB048" d="M27.746 249.065c.225-.155.463-.309.72-.463.31-.175.641-.312.984-.41.494-.141 1-.241 1.51-.299a19.443 19.443 0 012.263-.123c.885-.004 1.716.024 2.494.085.688.049 1.373.14 2.05.272.496.091.98.241 1.44.446.37.178.59.382.658.611l2.58.027c.166-.002.332.014.494.045.145.03.214.067.215.112v.212l-3.317-.031c-.116.26-.413.498-.889.714a9.105 9.105 0 01-1.818.561l-1.209-.168a1.36 1.36 0 01-.266-.064c-.07-.025-.103-.052-.104-.082-.001-.03.093-.093.278-.14a9.574 9.574 0 001.324-.468.952.952 0 00.455-.378l-7.829-.078c-.222.161-.453.31-.691.446a4.485 4.485 0 01-1.018.395 10.5 10.5 0 01-1.573.285c-.79.081-1.582.12-2.375.116a24.86 24.86 0 01-2.1-.081 14.537 14.537 0 01-1.823-.26 5.63 5.63 0 01-1.308-.429c-.34-.17-.53-.366-.569-.586l-2.124-.022c-.168 0-.336-.014-.502-.044-.147-.029-.22-.066-.22-.114v-.212l2.904.028c.128-.224.391-.42.794-.585.477-.19.97-.339 1.473-.444l.973.133c.295.042.441.093.442.147 0 .029-.06.066-.185.111l-.436.16a3.905 3.905 0 00-.483.219 1.025 1.025 0 00-.354.283l7.142.073zm-7.165.286c.083.162.22.29.386.361.236.114.484.198.74.249.329.07.66.117.995.142a13.514 13.514 0 002.39-.017c.31-.032.618-.084.921-.156a3.789 3.789 0 001.22-.512l-6.652-.067zm17.043-.185c-.058-.141-.2-.265-.422-.37a3.83 3.83 0 00-.849-.268c-.397-.08-.799-.133-1.203-.161-.456-.035-.96-.052-1.511-.049-.423-.002-.847.02-1.267.066-.31.033-.619.089-.921.166-.229.059-.451.141-.663.246a4.762 4.762 0 00-.507.299l7.343.071z"/>
  <path fill="url(#paint17_linear)" d="M29.915 246.246c-10.217 0-20.854.899-22.555 2.641.065.061.127.127.185.196 1.433-1.204 10.217-2.427 22.369-2.427 12.463 0 21.387 1.281 22.468 2.52.053-.068.11-.133.171-.194-1.403-1.803-12.241-2.736-22.638-2.736z"/>
  <path fill="url(#paint18_linear)" d="M.629 243.557v5.086c0 1.643 10.259 2.976 22.912 2.976 12.654 0 22.913-1.333 22.913-2.976v-5.086H.629z"/>
  <path fill="url(#paint19_linear)" d="M46.454 243.557c0 1.643-10.259 2.976-22.913 2.976-12.653 0-22.912-1.333-22.912-2.976s10.26-2.974 22.912-2.974 22.913 1.331 22.913 2.974z"/>
  <path fill="url(#paint20_linear)" d="M23.541 246.738c-11.206 0-22.925-1.071-22.925-3.137 0-.113.04-.313.154-.313.113 0 .065.156.065.269 0 1.311 9.325 2.771 22.706 2.771 13.382 0 22.704-1.46 22.704-2.771 0-.113.019-.219.133-.219s.086.151.086.265c.004 2.066-11.715 3.135-22.923 3.135z"/>
  <path fill="#FCB048" d="M21.377 243.723a13.3 13.3 0 01.72-.463c.31-.175.64-.313.983-.411a9.42 9.42 0 011.507-.296 19.011 19.011 0 012.263-.122c.886-.005 1.717.023 2.493.084.689.049 1.374.14 2.051.272.496.091.98.241 1.44.447.37.178.59.381.658.611l2.58.025c.166 0 .331.015.494.046.145.029.214.067.215.112v.212l-3.317-.032c-.116.261-.413.499-.889.715a9.038 9.038 0 01-1.818.562l-1.209-.169a1.359 1.359 0 01-.267-.063c-.069-.025-.103-.053-.103-.083 0-.031.092-.087.277-.14.186-.053.398-.118.633-.195a6.37 6.37 0 00.692-.277.943.943 0 00.454-.377l-7.828-.078c-.222.161-.453.31-.691.446a4.538 4.538 0 01-1.018.395c-.517.134-1.043.229-1.574.284-.789.082-1.581.121-2.375.117-.717 0-1.416-.024-2.1-.082a14.174 14.174 0 01-1.822-.26 5.684 5.684 0 01-1.308-.428c-.34-.17-.53-.366-.569-.587l-2.129-.021c-.168 0-.336-.015-.501-.045-.147-.028-.221-.065-.221-.113v-.213l2.904.028c.128-.224.391-.419.794-.585a9.13 9.13 0 011.473-.444l.973.134c.295.041.442.092.442.146 0 .029-.06.067-.185.112-.125.044-.268.098-.436.16a4.06 4.06 0 00-.483.218 1.037 1.037 0 00-.354.283l7.15.075zm-7.165.29c.082.162.219.29.386.36.235.115.484.198.74.249.328.071.66.119.994.144.37.031.757.045 1.16.043.411.001.822-.02 1.231-.061.31-.032.618-.084.92-.156.238-.056.47-.133.693-.229.183-.079.36-.172.529-.278l-6.653-.072zm17.039-.19c-.058-.141-.2-.265-.422-.37a3.775 3.775 0 00-.849-.269 9.554 9.554 0 00-1.203-.161c-.455-.035-.96-.052-1.511-.049-.424-.001-.847.021-1.267.066a6.458 6.458 0 00-.926.167c-.228.058-.45.14-.66.245a4.723 4.723 0 00-.508.299l7.346.072z"/>
  <path fill="url(#paint21_linear)" d="M23.545 240.904c-10.217 0-20.854.9-22.555 2.641.066.062.128.127.185.197 1.434-1.21 10.217-2.427 22.37-2.427 12.462 0 21.386 1.28 22.467 2.519.053-.068.11-.133.171-.194-1.404-1.802-12.24-2.736-22.638-2.736z"/>
  <path fill="url(#paint22_linear)" d="M6.126 238.231v5.086c0 1.644 10.257 2.975 22.911 2.975 12.654 0 22.913-1.331 22.913-2.975v-5.086H6.126z"/>
  <path fill="url(#paint23_linear)" d="M51.95 238.231c0 1.644-10.258 2.976-22.913 2.976-12.655 0-22.911-1.332-22.911-2.976s10.257-2.975 22.911-2.975c12.654 0 22.913 1.332 22.913 2.975z"/>
  <path fill="url(#paint24_linear)" d="M29.037 241.412c-11.206 0-22.925-1.071-22.925-3.137 0-.113.04-.312.153-.312.113 0 .065.155.065.268 0 1.311 9.326 2.77 22.707 2.77s22.708-1.459 22.708-2.77c0-.113.018-.219.132-.219s.086.151.086.264c0 2.067-11.719 3.136-22.926 3.136z"/>
  <path fill="#FCB048" d="M26.872 238.398c.225-.157.463-.309.72-.463.311-.176.642-.313.985-.41.495-.141 1-.241 1.51-.3.752-.085 1.507-.126 2.263-.122.886-.005 1.717.023 2.493.084.688.049 1.373.14 2.05.272.497.092.98.242 1.441.447.37.178.59.381.658.61l2.58.026c.166 0 .331.015.495.047.143.028.214.066.214.111v.213l-3.317-.033c-.116.261-.413.499-.89.715a9.042 9.042 0 01-1.818.562l-1.203-.169a1.353 1.353 0 01-.267-.063c-.07-.025-.103-.053-.103-.083 0-.031.092-.087.278-.139.185-.052.398-.118.633-.196.236-.079.467-.171.692-.277a.941.941 0 00.453-.377l-7.828-.078a7.32 7.32 0 01-.691.446 4.485 4.485 0 01-1.018.395c-.517.134-1.043.229-1.574.285-.789.081-1.582.119-2.375.116a24.44 24.44 0 01-2.1-.082 14.35 14.35 0 01-1.823-.259 5.633 5.633 0 01-1.308-.429c-.338-.17-.529-.366-.569-.586l-2.124-.022c-.168 0-.336-.014-.502-.045-.146-.028-.22-.066-.22-.113v-.212l2.903.027c.128-.223.391-.419.794-.585.478-.189.97-.338 1.473-.444l.973.134c.295.042.442.09.442.146 0 .03-.06.067-.185.112-.125.044-.267.098-.436.16a3.892 3.892 0 00-.483.219 1.02 1.02 0 00-.353.283l7.137.077zm-7.164.289a.77.77 0 00.386.36c.235.115.484.199.74.25.328.07.66.117.995.143.37.03.757.044 1.159.042.411.001.822-.019 1.23-.06.31-.032.619-.084.922-.156.237-.057.468-.133.692-.229.183-.08.36-.175.528-.283l-6.652-.067zm17.043-.185c-.059-.141-.201-.265-.423-.371a3.768 3.768 0 00-.848-.267 9.373 9.373 0 00-1.203-.163c-.457-.035-.961-.051-1.513-.049-.423 0-.846.022-1.267.066a6.54 6.54 0 00-.92.168c-.229.058-.45.14-.662.244a4.723 4.723 0 00-.507.299l7.343.073z"/>
  <path fill="url(#paint25_linear)" d="M29.04 235.579c-10.215 0-20.853.899-22.554 2.64.066.061.127.127.185.196 1.433-1.209 10.218-2.426 22.369-2.426 12.463 0 21.387 1.281 22.468 2.519.053-.068.11-.132.171-.194-1.404-1.803-12.24-2.735-22.638-2.735z"/>
  <path fill="url(#paint26_linear)" d="M9.46 232.89v5.086c0 1.643 10.259 2.975 22.913 2.975s22.912-1.332 22.912-2.975v-5.086H9.46z"/>
  <path fill="url(#paint27_linear)" d="M32.373 235.866c12.654 0 22.912-1.332 22.912-2.976 0-1.643-10.258-2.976-22.912-2.976S9.46 231.247 9.46 232.89c0 1.644 10.258 2.976 22.913 2.976z"/>
  <path fill="url(#paint28_linear)" d="M32.373 236.071c-11.207 0-22.925-1.071-22.925-3.137 0-.114.04-.313.153-.313.114 0 .065.155.065.269 0 1.311 9.325 2.77 22.707 2.77 13.381 0 22.707-1.459 22.707-2.77 0-.114.02-.219.132-.219.113 0 .086.151.086.265 0 2.065-11.719 3.135-22.925 3.135z"/>
  <path fill="#FCB048" d="M30.208 233.056c.224-.156.464-.31.72-.463.31-.175.64-.313.984-.41.494-.141 1-.241 1.51-.3a19.21 19.21 0 012.262-.122c.886-.004 1.72.025 2.5.084.688.05 1.373.141 2.05.273.496.091.979.241 1.44.446.37.178.589.381.657.61l2.58.027c.166-.001.332.014.495.046.144.029.214.066.214.112v.212l-3.317-.032c-.117.261-.413.499-.89.714a8.973 8.973 0 01-1.818.562l-1.208-.168a1.521 1.521 0 01-.267-.063c-.07-.026-.103-.054-.103-.083 0-.03.092-.093.277-.14.185-.047.397-.118.632-.196.236-.078.468-.171.693-.277a.952.952 0 00.454-.378l-7.829-.078a7.065 7.065 0 01-.691.446 4.488 4.488 0 01-1.018.396 10.63 10.63 0 01-1.574.284c-.789.082-1.582.121-2.375.117-.717 0-1.416-.024-2.1-.082a14.188 14.188 0 01-1.823-.26 5.635 5.635 0 01-1.308-.429c-.338-.169-.53-.365-.569-.586l-2.123-.022c-.169 0-.337-.014-.503-.044-.146-.028-.22-.066-.22-.114v-.212l2.903.028c.129-.224.392-.42.794-.585a9.03 9.03 0 011.474-.444l.973.133c.295.042.441.093.441.147 0 .029-.06.066-.185.112l-.436.159a3.917 3.917 0 00-.484.219 1.036 1.036 0 00-.354.283l7.142.078zm-7.165.29a.769.769 0 00.386.36c.236.114.484.198.74.249.328.07.66.118.995.144.37.03.756.044 1.16.042.41.001.821-.02 1.23-.061a6.99 6.99 0 00.92-.155 3.805 3.805 0 001.222-.513l-6.653-.066zm17.042-.185c-.058-.142-.2-.266-.421-.371a3.83 3.83 0 00-.849-.268 9.554 9.554 0 00-1.203-.161c-.456-.035-.96-.051-1.512-.049-.423-.001-.846.021-1.266.066-.31.034-.619.09-.921.167-.229.058-.45.14-.661.245a4.737 4.737 0 00-.508.298l7.341.073z"/>
  <path fill="url(#paint29_linear)" d="M32.376 230.237c-10.216 0-20.853.899-22.556 2.641.066.061.128.126.185.195 1.435-1.204 10.218-2.426 22.37-2.426 12.463 0 21.388 1.281 22.469 2.52.053-.068.11-.133.17-.194-1.404-1.804-12.24-2.736-22.639-2.736z"/>
  <path fill="url(#paint30_linear)" d="M7.002 227.124v5.085c0 1.644 10.259 2.976 22.913 2.976 12.653 0 22.912-1.332 22.912-2.976v-5.085H7.002z"/>
  <path fill="url(#paint31_linear)" d="M52.823 227.124c0 1.644-10.258 2.976-22.912 2.976s-22.909-1.329-22.909-2.976 10.259-2.975 22.913-2.975c12.653 0 22.908 1.335 22.908 2.975z"/>
  <path fill="url(#paint32_linear)" d="M29.91 230.308c-11.205 0-22.924-1.072-22.924-3.138 0-.113.04-.313.153-.313.113 0 .065.157.065.27 0 1.31 9.326 2.77 22.707 2.77s22.707-1.46 22.707-2.77c0-.113.02-.22.133-.22.114 0 .086.152.086.265 0 2.066-11.719 3.136-22.926 3.136z"/>
  <path fill="#FCB048" d="M27.746 227.292c.225-.155.463-.308.72-.463.31-.175.64-.313.984-.411.494-.14 1-.24 1.51-.298a19.01 19.01 0 012.263-.122c.885-.005 1.716.024 2.494.084.688.049 1.373.139 2.05.271.496.091.98.241 1.44.448.37.178.59.381.658.61l2.58.026c.166-.001.332.014.495.046.144.029.213.066.214.111v.213l-3.317-.032c-.116.26-.413.498-.888.715a9.106 9.106 0 01-1.82.561l-1.207-.167a1.519 1.519 0 01-.266-.063c-.07-.025-.103-.053-.104-.084-.001-.03.093-.087.278-.14.185-.052.398-.116.632-.194a6.36 6.36 0 00.692-.278.938.938 0 00.454-.377l-7.828-.078c-.222.161-.453.31-.691.447a4.482 4.482 0 01-1.018.394c-.517.135-1.043.23-1.574.286-.788.08-1.581.119-2.374.115-.718 0-1.417-.024-2.1-.081a14.534 14.534 0 01-1.823-.26 5.68 5.68 0 01-1.308-.428c-.34-.171-.53-.366-.569-.587l-2.124-.022a2.758 2.758 0 01-.497-.04c-.147-.028-.221-.065-.221-.113v-.213l2.904.028c.129-.224.392-.418.794-.585.478-.189.971-.338 1.474-.444l.973.135c.295.04.441.092.442.145 0 .03-.06.068-.185.112s-.269.098-.436.16a3.892 3.892 0 00-.483.219c-.138.066-.26.163-.355.283l7.137.071zm-7.165.295a.77.77 0 00.387.36c.235.115.483.199.74.249.328.071.66.118.994.144a13.946 13.946 0 002.39-.018c.31-.032.618-.084.921-.156a3.89 3.89 0 001.22-.511l-6.652-.068zm17.043-.185c-.058-.142-.2-.265-.422-.371a3.77 3.77 0 00-.849-.267 9.029 9.029 0 00-1.203-.162 18.08 18.08 0 00-1.511-.049c-.423-.001-.846.021-1.267.065a6.54 6.54 0 00-.921.168 3.38 3.38 0 00-.66.244 4.57 4.57 0 00-.508.3l7.341.072z"/>
  <path fill="url(#paint33_linear)" d="M29.915 224.473c-10.217 0-20.854.9-22.555 2.642.066.061.127.126.185.196 1.433-1.21 10.217-2.427 22.369-2.427 12.463 0 21.387 1.281 22.468 2.52.053-.068.11-.133.171-.194-1.403-1.803-12.241-2.737-22.638-2.737z"/>
  <path fill="url(#paint34_linear)" d="M.629 221.786v5.085c0 1.643 10.259 2.975 22.912 2.975 12.654 0 22.913-1.332 22.913-2.975v-5.085H.629z"/>
  <path fill="url(#paint35_linear)" d="M23.541 224.761c12.655 0 22.913-1.332 22.913-2.975 0-1.644-10.258-2.976-22.913-2.976-12.654 0-22.912 1.332-22.912 2.976 0 1.643 10.258 2.975 22.912 2.975z"/>
  <path fill="url(#paint36_linear)" d="M23.541 224.966c-11.206 0-22.925-1.072-22.925-3.137 0-.114.04-.313.154-.313.113 0 .065.156.065.27 0 1.309 9.325 2.77 22.706 2.77 13.382 0 22.704-1.461 22.704-2.77 0-.114.019-.221.133-.221s.086.152.086.265c.004 2.066-11.715 3.136-22.923 3.136z"/>
  <path fill="#FCB048" d="M21.377 221.951c.225-.155.462-.309.72-.463.31-.174.64-.312.983-.41.495-.141 1-.241 1.51-.299a19.224 19.224 0 012.264-.122c.886-.005 1.717.023 2.493.084.689.049 1.374.14 2.051.272.496.091.98.241 1.44.447.37.178.589.381.657.61l2.58.027a2.56 2.56 0 01.495.045c.144.03.214.067.215.112v.212l-3.317-.031c-.116.26-.413.498-.889.714a9.04 9.04 0 01-1.819.561l-1.208-.167a1.434 1.434 0 01-.267-.064c-.07-.025-.104-.053-.104-.083 0-.029.093-.088.278-.14.185-.051.398-.117.632-.195.236-.079.467-.172.693-.278a.94.94 0 00.454-.378l-7.828-.077c-.222.161-.453.31-.691.446a4.482 4.482 0 01-1.018.394 10.5 10.5 0 01-1.574.286 22.16 22.16 0 01-2.375.115 25.29 25.29 0 01-2.1-.08 14.54 14.54 0 01-1.822-.26 5.729 5.729 0 01-1.308-.429c-.34-.171-.53-.371-.57-.586l-2.128-.023a2.812 2.812 0 01-.501-.043c-.148-.029-.222-.067-.222-.114v-.212l2.905.028c.128-.224.391-.42.794-.586.477-.189.97-.338 1.473-.443l.973.133c.295.042.441.093.442.146 0 .03-.06.067-.185.112l-.436.16a4.061 4.061 0 00-.483.218 1.028 1.028 0 00-.354.284l7.147.077zm-7.165.29c.082.162.22.29.386.361.235.114.484.198.74.249.328.069.66.117.995.143a13.944 13.944 0 002.39-.018c.31-.032.618-.084.921-.156.237-.057.468-.133.692-.229.184-.08.36-.175.529-.283l-6.653-.067zm17.039-.19c-.058-.141-.2-.265-.422-.371a3.83 3.83 0 00-.849-.268 9.554 9.554 0 00-1.203-.161c-.455-.035-.96-.051-1.511-.049-.423-.001-.846.021-1.267.066a6.605 6.605 0 00-.926.167c-.228.058-.45.14-.66.245a4.715 4.715 0 00-.508.298l7.346.073z"/>
  <path fill="url(#paint37_linear)" d="M23.545 219.132c-10.217 0-20.854.9-22.555 2.641.066.061.127.127.185.196 1.434-1.209 10.217-2.426 22.37-2.426 12.462 0 21.386 1.28 22.467 2.52.053-.069.11-.134.171-.195-1.404-1.803-12.24-2.736-22.638-2.736z"/>
  <path fill="url(#paint38_linear)" d="M6.126 216.459v5.086c0 1.643 10.257 2.976 22.911 2.976 12.654 0 22.913-1.333 22.913-2.976v-5.086H6.126z"/>
  <path fill="url(#paint39_linear)" d="M29.037 219.435c12.654 0 22.912-1.332 22.912-2.976 0-1.643-10.258-2.975-22.912-2.975s-22.912 1.332-22.912 2.975c0 1.644 10.258 2.976 22.912 2.976z"/>
  <path fill="url(#paint40_linear)" d="M29.037 219.64c-11.206 0-22.925-1.071-22.925-3.137 0-.114.04-.313.153-.313.113 0 .065.156.065.269 0 1.311 9.326 2.77 22.707 2.77s22.708-1.459 22.708-2.77c0-.113.018-.219.132-.219s.086.151.086.265c0 2.066-11.719 3.135-22.926 3.135z"/>
  <path fill="#FCB048" d="M26.872 216.625a13.3 13.3 0 01.72-.463 4.51 4.51 0 01.985-.41c.495-.141 1-.241 1.51-.299.752-.085 1.507-.126 2.263-.123.886-.003 1.717.025 2.493.086.688.048 1.373.139 2.05.271.497.091.98.241 1.441.447.37.177.59.38.658.611l2.58.026a2.57 2.57 0 01.495.045c.143.03.214.067.214.112v.212l-3.317-.031c-.116.26-.413.498-.89.714a9.036 9.036 0 01-1.818.562l-1.203-.169a1.36 1.36 0 01-.267-.063c-.07-.026-.103-.052-.103-.083 0-.031.092-.087.278-.14.185-.053.398-.117.633-.194.235-.08.466-.173.692-.278a.942.942 0 00.453-.378l-7.828-.077a7.58 7.58 0 01-.691.446 4.538 4.538 0 01-1.018.395 10.63 10.63 0 01-1.574.284 21.92 21.92 0 01-2.375.117c-.718 0-1.416-.024-2.1-.081a14.354 14.354 0 01-1.823-.261 5.685 5.685 0 01-1.308-.428c-.338-.17-.529-.37-.569-.587l-2.124-.021c-.168 0-.336-.015-.502-.045-.146-.028-.22-.065-.22-.113v-.213l2.903.028c.128-.224.391-.419.794-.585a9.08 9.08 0 011.47-.438l.973.133c.295.042.443.09.443.147 0 .029-.06.067-.186.112-.125.044-.267.098-.435.16a3.907 3.907 0 00-.484.218 1.011 1.011 0 00-.353.283l7.14.071zm-7.164.29c.082.162.219.289.386.36.235.115.484.198.74.249.328.07.66.118.995.144.37.03.757.045 1.159.043.411.001.822-.02 1.23-.061.31-.032.619-.084.922-.156a3.915 3.915 0 001.22-.511l-6.652-.068zm17.043-.19c-.059-.141-.201-.265-.423-.37a3.773 3.773 0 00-.848-.269 9.554 9.554 0 00-1.203-.161c-.457-.035-.961-.052-1.513-.049-.423-.001-.846.021-1.267.066-.31.034-.618.09-.92.167a3.31 3.31 0 00-.662.245 4.38 4.38 0 00-.507.299l7.343.072z"/>
  <path fill="url(#paint41_linear)" d="M29.04 213.806c-10.215 0-20.853.9-22.554 2.641.066.061.127.127.185.196 1.433-1.204 10.218-2.426 22.369-2.426 12.463 0 21.387 1.28 22.468 2.519.053-.068.11-.133.171-.194-1.404-1.803-12.24-2.736-22.638-2.736z"/>
  <path fill="url(#paint42_linear)" d="M3.267 211.118v5.085c0 1.644 10.258 2.976 22.912 2.976 12.655 0 22.913-1.332 22.913-2.976v-5.085H3.267z"/>
  <path fill="url(#paint43_linear)" d="M26.18 214.094c12.653 0 22.912-1.332 22.912-2.976 0-1.643-10.259-2.975-22.913-2.975s-22.912 1.332-22.912 2.975c0 1.644 10.258 2.976 22.912 2.976z"/>
  <path fill="url(#paint44_linear)" d="M26.18 214.299c-11.208 0-22.926-1.072-22.926-3.138 0-.113.04-.312.153-.312.114 0 .065.155.065.269 0 1.31 9.325 2.769 22.707 2.769 13.382 0 22.707-1.459 22.707-2.769 0-.114.02-.22.132-.22.113 0 .086.152.086.265 0 2.069-11.719 3.136-22.925 3.136z"/>
  <path fill="#FCB048" d="M24.014 211.287c.224-.157.462-.309.72-.463.31-.175.641-.313.984-.41.495-.141 1-.241 1.51-.3a19.46 19.46 0 012.265-.124c.886-.005 1.717.023 2.494.085a16.84 16.84 0 012.05.271c.496.092.98.242 1.44.447.37.178.59.382.658.611l2.58.026c.166-.001.331.014.495.046.144.029.213.067.213.111v.213l-3.316-.032c-.116.26-.413.498-.89.715a9.116 9.116 0 01-1.819.564l-1.208-.169a1.355 1.355 0 01-.266-.063c-.07-.025-.104-.053-.104-.082 0-.03.093-.093.278-.14.185-.047.398-.118.633-.196.236-.078.467-.171.692-.278a.931.931 0 00.454-.376l-7.828-.078c-.222.161-.453.31-.692.446a4.481 4.481 0 01-1.018.395c-.516.134-1.042.229-1.573.285-.79.081-1.582.119-2.375.116-.718 0-1.416-.023-2.101-.082a14.35 14.35 0 01-1.822-.259 5.632 5.632 0 01-1.308-.429c-.339-.17-.53-.366-.57-.587l-2.128-.021c-.168 0-.336-.015-.502-.045-.146-.028-.22-.066-.22-.113v-.212l2.903.027c.128-.223.393-.418.794-.584.478-.19.97-.339 1.474-.445l.972.134c.295.042.442.09.442.146 0 .03-.06.067-.185.112-.126.044-.268.098-.436.16a3.892 3.892 0 00-.484.219 1.01 1.01 0 00-.353.283l7.146.076zm-7.164.289a.766.766 0 00.385.36c.235.115.484.199.74.25.328.07.66.117.994.143.37.031.757.045 1.16.042.41.001.821-.019 1.23-.06.312-.032.62-.084.926-.156.236-.057.468-.133.692-.229.183-.079.36-.172.53-.278l-6.657-.072zm17.042-.196c-.059-.141-.2-.265-.422-.371a3.818 3.818 0 00-.848-.268 9.556 9.556 0 00-1.203-.162c-.457-.035-.961-.051-1.513-.049-.423 0-.846.021-1.267.066-.31.034-.617.09-.92.168-.228.058-.45.14-.662.244a4.753 4.753 0 00-.507.299l7.342.073z"/>
  <path fill="url(#paint45_linear)" d="M26.182 208.465c-10.216 0-20.853.899-22.555 2.64.066.062.127.127.185.197 1.432-1.21 10.219-2.423 22.37-2.423 12.463 0 21.388 1.281 22.469 2.519.053-.068.11-.133.171-.194-1.406-1.806-12.243-2.739-22.64-2.739z"/>
  <path fill="url(#paint46_linear)" d="M55.608 214.702l-4.14 2.948c-1.336.953 3.522 10.09 10.857 20.408 7.334 10.318 14.37 17.912 15.703 16.959l4.142-2.947-26.562-37.368z"/>
  <path fill="url(#paint47_linear)" d="M82.17 252.07c-1.339.952-8.37-6.641-15.704-16.959-7.334-10.318-12.195-19.455-10.858-20.408 1.337-.953 8.37 6.64 15.703 16.958 7.334 10.318 12.196 19.456 10.859 20.409z"/>
  <path fill="url(#paint48_linear)" d="M66.299 235.23c-6.496-9.139-12.416-19.312-10.734-20.516.093-.066.278-.149.344-.056.066.093-.093.143-.185.208-1.067.76 3.147 9.21 10.905 20.122 7.759 10.912 14.35 17.67 15.418 16.91.092-.065.19-.112.256-.019.066.092-.074.158-.167.224-1.678 1.201-9.342-7.735-15.837-16.873z"/>
  <path fill="#FCB048" d="M67.5 231.717c.255.092.52.199.791.32.324.151.627.341.906.564.4.322.775.676 1.119 1.059.504.563.975 1.155 1.41 1.773.517.72.976 1.414 1.377 2.083.36.591.683 1.203.967 1.833.213.457.371.938.47 1.433.07.403.03.7-.115.89l1.474 2.119c.097.134.18.278.25.429.06.135.07.213.033.24l-.173.124-1.896-2.723c-.28.056-.645-.048-1.098-.311a9.024 9.024 0 01-1.511-1.157l-.563-1.083a1.4 1.4 0 01-.103-.254c-.02-.072-.017-.115.008-.133.025-.018.125.026.278.148.152.122.326.256.525.402.2.148.409.283.624.407.17.11.37.163.571.151l-4.48-6.432a7.223 7.223 0 01-.763-.304 4.541 4.541 0 01-.91-.599 10.85 10.85 0 01-1.146-1.12 22.48 22.48 0 01-1.471-1.87 23.302 23.302 0 01-1.15-1.76 14.242 14.242 0 01-.846-1.636 5.662 5.662 0 01-.409-1.315c-.057-.375-.009-.649.148-.804l-1.213-1.745a2.761 2.761 0 01-.255-.434c-.061-.137-.074-.219-.036-.247l.172-.124 1.66 2.384c.258-.025.57.077.938.308.431.28.838.596 1.216.945l.454.871c.137.265.185.412.138.445-.025.018-.093-.01-.197-.083a46.747 46.747 0 00-.383-.263c-.148-.1-.303-.19-.463-.268a1.012 1.012 0 00-.436-.124l4.087 5.861zm-4.39-5.674a.769.769 0 00-.07.523c.044.257.119.508.225.746.134.308.289.606.463.894.19.319.401.643.636.97.238.336.493.659.764.968.205.235.426.455.66.66.184.161.38.306.588.433.172.103.352.192.537.268l-3.803-5.462zm10.033 13.786c.082-.129.1-.317.058-.556a3.774 3.774 0 00-.277-.847 9.33 9.33 0 00-.566-1.075 19.928 19.928 0 00-.833-1.261 11.793 11.793 0 00-.787-.996 6.507 6.507 0 00-.67-.653 3.348 3.348 0 00-.583-.398 4.797 4.797 0 00-.537-.24l4.195 6.026z"/>
  <path fill="url(#paint49_linear)" d="M71.049 231.847c-5.924-8.33-12.82-16.485-15.224-16.861a1.97 1.97 0 01-.052.265c1.816.468 7.898 6.926 14.941 16.834 7.227 10.167 11.357 18.186 10.978 19.786.086.003.172.012.258.026.65-2.19-4.872-11.568-10.901-20.05z"/>
  <defs>
    <linearGradient id="paint0_linear" x1="23.63" x2="91.64" y1="43.208" y2="40.253" gradientUnits="userSpaceOnUse">
      <stop stop-color="#8EDCF4"/>
      <stop offset="1" stop-color="#488CA2"/>
    </linearGradient>
    <linearGradient id="paint1_linear" x1="16.521" x2="80.128" y1="154.034" y2="154.034" gradientUnits="userSpaceOnUse">
      <stop stop-color="#C1D5E8"/>
      <stop offset="1" stop-color="#60A1DF"/>
    </linearGradient>
    <linearGradient id="paint2_linear" x1="16629" x2="39925.8" y1="287247" y2="287247" gradientUnits="userSpaceOnUse">
      <stop stop-color="#C1D5E8"/>
      <stop offset="1" stop-color="#4388CA"/>
    </linearGradient>
    <linearGradient id="paint3_linear" x1="221157" x2="423587" y1="267050" y2="628906" gradientUnits="userSpaceOnUse">
      <stop stop-color="#C1D5E8"/>
      <stop offset="1" stop-color="#62A5E6"/>
    </linearGradient>
    <linearGradient id="paint4_linear" x1="193166" x2="363196" y1="229952" y2="610572" gradientUnits="userSpaceOnUse">
      <stop stop-color="#236DE8"/>
      <stop offset="1" stop-color="#236DE8"/>
    </linearGradient>
    <linearGradient id="paint5_linear" x1="105451" x2="79982.1" y1="-16399.9" y2="196668" gradientUnits="userSpaceOnUse">
      <stop stop-color="#8EDCF4"/>
      <stop offset="1" stop-color="#51ADCA"/>
    </linearGradient>
    <linearGradient id="paint6_linear" x1="16699.2" x2="5575.19" y1="-3588.02" y2="16101.7" gradientUnits="userSpaceOnUse">
      <stop stop-color="#8EDCF4"/>
      <stop offset="1" stop-color="#4094AD"/>
    </linearGradient>
    <linearGradient id="paint7_linear" x1="23041" x2="11916.9" y1="223.611" y2="19913.4" gradientUnits="userSpaceOnUse">
      <stop stop-color="#8EDCF4"/>
      <stop offset="1" stop-color="#3B98B5"/>
    </linearGradient>
    <linearGradient id="paint8_linear" x1="-11.765" x2="7.734" y1="196.572" y2="199.704" gradientUnits="userSpaceOnUse">
      <stop stop-color="#2F80ED"/>
      <stop offset="1" stop-color="#2262B9"/>
    </linearGradient>
    <linearGradient id="paint9_linear" x1="81731.1" x2="151985" y1="189132" y2="305900" gradientUnits="userSpaceOnUse">
      <stop stop-color="#2F80ED"/>
      <stop offset="1" stop-color="#164686"/>
    </linearGradient>
    <linearGradient id="paint10_linear" x1="40.628" x2="146.488" y1="222.977" y2="256.384" gradientUnits="userSpaceOnUse">
      <stop stop-color="#444B8C"/>
      <stop offset="1" stop-color="#26264F"/>
    </linearGradient>
    <linearGradient id="paint11_linear" x1="20.87" x2="74.487" y1="199.097" y2="200.168" gradientUnits="userSpaceOnUse">
      <stop stop-color="#FF9085"/>
      <stop offset="1" stop-color="#FB6FBB"/>
    </linearGradient>
    <linearGradient id="paint12_linear" x1="74590.9" x2="138898" y1="133468" y2="243600" gradientUnits="userSpaceOnUse">
      <stop stop-color="#2F80ED"/>
      <stop offset="1" stop-color="#1B5098"/>
    </linearGradient>
    <linearGradient id="paint13_linear" x1="46605.5" x2="76570.4" y1="111736" y2="111736" gradientUnits="userSpaceOnUse">
      <stop stop-color="#AA80F9"/>
      <stop offset="1" stop-color="#6165D7"/>
    </linearGradient>
    <linearGradient id="paint14_linear" x1="3.082" x2="55.8" y1="252.93" y2="252.93" gradientUnits="userSpaceOnUse">
      <stop stop-color="#FCB148"/>
      <stop offset=".05" stop-color="#FDBA46"/>
      <stop offset=".14" stop-color="#FFC244"/>
      <stop offset=".32" stop-color="#FFC444"/>
      <stop offset=".48" stop-color="#FDB946"/>
      <stop offset=".78" stop-color="#F99C4D"/>
      <stop offset=".87" stop-color="#F8924F"/>
      <stop offset="1" stop-color="#F8924F"/>
    </linearGradient>
    <linearGradient id="paint15_linear" x1="29.683" x2="32.465" y1="246.987" y2="270.269" gradientUnits="userSpaceOnUse">
      <stop stop-color="#FFDB44"/>
      <stop offset="1" stop-color="#FEEF06"/>
    </linearGradient>
    <linearGradient id="paint16_linear" x1="14348" x2="14350.4" y1="9374.45" y2="9644.59" gradientUnits="userSpaceOnUse">
      <stop stop-color="#FFDB44"/>
      <stop offset="1" stop-color="#FEEF06"/>
    </linearGradient>
    <linearGradient id="paint17_linear" x1="30.364" x2="29.513" y1="252.35" y2="245.225" gradientUnits="userSpaceOnUse">
      <stop stop-color="#F36F56"/>
      <stop offset=".31" stop-color="#F99C4C"/>
      <stop offset=".55" stop-color="#FDB946"/>
      <stop offset=".68" stop-color="#FFC444"/>
      <stop offset=".8" stop-color="#FFC244"/>
      <stop offset=".87" stop-color="#FEBA46"/>
      <stop offset=".92" stop-color="#FCAD49"/>
      <stop offset=".96" stop-color="#F99A4D"/>
      <stop offset="1" stop-color="#F57E53"/>
    </linearGradient>
    <linearGradient id="paint18_linear" x1="-1932.26" x2="24169.5" y1="21710.2" y2="21710.2" gradientUnits="userSpaceOnUse">
      <stop stop-color="#FCB148"/>
      <stop offset=".05" stop-color="#FDBA46"/>
      <stop offset=".14" stop-color="#FFC244"/>
      <stop offset=".32" stop-color="#FFC444"/>
      <stop offset=".48" stop-color="#FDB946"/>
      <stop offset=".78" stop-color="#F99C4D"/>
      <stop offset=".87" stop-color="#F8924F"/>
      <stop offset="1" stop-color="#F8924F"/>
    </linearGradient>
    <linearGradient id="paint19_linear" x1="11238.7" x2="11262.2" y1="15704.7" y2="17221.5" gradientUnits="userSpaceOnUse">
      <stop stop-color="#FFDB44"/>
      <stop offset="1" stop-color="#FEEF06"/>
    </linearGradient>
    <linearGradient id="paint20_linear" x1="11185" x2="11187.4" y1="9170.15" y2="9440.26" gradientUnits="userSpaceOnUse">
      <stop stop-color="#FFDB44"/>
      <stop offset="1" stop-color="#FEEF06"/>
    </linearGradient>
    <linearGradient id="paint21_linear" x1="7150.59" x2="7152.36" y1="1528.23" y2="1756.86" gradientUnits="userSpaceOnUse">
      <stop stop-color="#F36F56"/>
      <stop offset=".31" stop-color="#F99C4C"/>
      <stop offset=".55" stop-color="#FDB946"/>
      <stop offset=".68" stop-color="#FFC444"/>
      <stop offset=".8" stop-color="#FFC244"/>
      <stop offset=".87" stop-color="#FEBA46"/>
      <stop offset=".92" stop-color="#FCAD49"/>
      <stop offset=".96" stop-color="#F99A4D"/>
      <stop offset="1" stop-color="#F57E53"/>
    </linearGradient>
    <linearGradient id="paint22_linear" x1="794.294" x2="26895.5" y1="21241.2" y2="21241.2" gradientUnits="userSpaceOnUse">
      <stop stop-color="#FCB148"/>
      <stop offset=".05" stop-color="#FDBA46"/>
      <stop offset=".14" stop-color="#FFC244"/>
      <stop offset=".32" stop-color="#FFC444"/>
      <stop offset=".48" stop-color="#FDB946"/>
      <stop offset=".78" stop-color="#F99C4D"/>
      <stop offset=".87" stop-color="#F8924F"/>
      <stop offset="1" stop-color="#F8924F"/>
    </linearGradient>
    <linearGradient id="paint23_linear" x1="13965" x2="13988.5" y1="15357" y2="16873.8" gradientUnits="userSpaceOnUse">
      <stop stop-color="#FFDB44"/>
      <stop offset="1" stop-color="#FEEF06"/>
    </linearGradient>
    <linearGradient id="paint24_linear" x1="13914.2" x2="13916.7" y1="8966.43" y2="9236.54" gradientUnits="userSpaceOnUse">
      <stop stop-color="#FFDB44"/>
      <stop offset="1" stop-color="#FEEF06"/>
    </linearGradient>
    <linearGradient id="paint25_linear" x1="4472.5" x2="4474.27" y1="1690.97" y2="1919.53" gradientUnits="userSpaceOnUse">
      <stop stop-color="#F36F56"/>
      <stop offset=".31" stop-color="#F99C4C"/>
      <stop offset=".55" stop-color="#FDB946"/>
      <stop offset=".68" stop-color="#FFC444"/>
      <stop offset=".8" stop-color="#FFC244"/>
      <stop offset=".87" stop-color="#FEBA46"/>
      <stop offset=".92" stop-color="#FCAD49"/>
      <stop offset=".96" stop-color="#F99A4D"/>
      <stop offset="1" stop-color="#F57E53"/>
    </linearGradient>
    <linearGradient id="paint26_linear" x1="2448.71" x2="28550.9" y1="20770.9" y2="20770.9" gradientUnits="userSpaceOnUse">
      <stop stop-color="#FCB148"/>
      <stop offset=".05" stop-color="#FDBA46"/>
      <stop offset=".14" stop-color="#FFC244"/>
      <stop offset=".32" stop-color="#FFC444"/>
      <stop offset=".48" stop-color="#FDB946"/>
      <stop offset=".78" stop-color="#F99C4D"/>
      <stop offset=".87" stop-color="#F8924F"/>
      <stop offset="1" stop-color="#F8924F"/>
    </linearGradient>
    <linearGradient id="paint27_linear" x1="15619.6" x2="15643.2" y1="15010.8" y2="16527.9" gradientUnits="userSpaceOnUse">
      <stop stop-color="#FFDB44"/>
      <stop offset="1" stop-color="#FEEF06"/>
    </linearGradient>
    <linearGradient id="paint28_linear" x1="15569.8" x2="15572.2" y1="8762.09" y2="9032.24" gradientUnits="userSpaceOnUse">
      <stop stop-color="#FFDB44"/>
      <stop offset="1" stop-color="#FEEF06"/>
    </linearGradient>
    <linearGradient id="paint29_linear" x1="2847.12" x2="2848.89" y1="1855.09" y2="2083.72" gradientUnits="userSpaceOnUse">
      <stop stop-color="#F36F56"/>
      <stop offset=".31" stop-color="#F99C4C"/>
      <stop offset=".55" stop-color="#FDB946"/>
      <stop offset=".68" stop-color="#FFC444"/>
      <stop offset=".8" stop-color="#FFC244"/>
      <stop offset=".87" stop-color="#FEBA46"/>
      <stop offset=".92" stop-color="#FCAD49"/>
      <stop offset=".96" stop-color="#F99A4D"/>
      <stop offset="1" stop-color="#F57E53"/>
    </linearGradient>
    <linearGradient id="paint30_linear" x1="1227.77" x2="27329.5" y1="20263.5" y2="20263.5" gradientUnits="userSpaceOnUse">
      <stop stop-color="#FCB148"/>
      <stop offset=".05" stop-color="#FDBA46"/>
      <stop offset=".14" stop-color="#FFC244"/>
      <stop offset=".32" stop-color="#FFC444"/>
      <stop offset=".48" stop-color="#FDB946"/>
      <stop offset=".78" stop-color="#F99C4D"/>
      <stop offset=".87" stop-color="#F8924F"/>
      <stop offset="1" stop-color="#F8924F"/>
    </linearGradient>
    <linearGradient id="paint31_linear" x1="14397.5" x2="14421.1" y1="14632.6" y2="16149.3" gradientUnits="userSpaceOnUse">
      <stop stop-color="#FFDB44"/>
      <stop offset="1" stop-color="#FEEF06"/>
    </linearGradient>
    <linearGradient id="paint32_linear" x1="14348" x2="14350.4" y1="8543.9" y2="8814.07" gradientUnits="userSpaceOnUse">
      <stop stop-color="#FFDB44"/>
      <stop offset="1" stop-color="#FEEF06"/>
    </linearGradient>
    <linearGradient id="paint33_linear" x1="4046.75" x2="4048.52" y1="2031.71" y2="2260.34" gradientUnits="userSpaceOnUse">
      <stop stop-color="#F36F56"/>
      <stop offset=".31" stop-color="#F99C4C"/>
      <stop offset=".55" stop-color="#FDB946"/>
      <stop offset=".68" stop-color="#FFC444"/>
      <stop offset=".8" stop-color="#FFC244"/>
      <stop offset=".87" stop-color="#FEBA46"/>
      <stop offset=".92" stop-color="#FCAD49"/>
      <stop offset=".96" stop-color="#F99A4D"/>
      <stop offset="1" stop-color="#F57E53"/>
    </linearGradient>
    <linearGradient id="paint34_linear" x1="-1932.26" x2="24169.5" y1="19791" y2="19791" gradientUnits="userSpaceOnUse">
      <stop stop-color="#FCB148"/>
      <stop offset=".05" stop-color="#FDBA46"/>
      <stop offset=".14" stop-color="#FFC244"/>
      <stop offset=".32" stop-color="#FFC444"/>
      <stop offset=".48" stop-color="#FDB946"/>
      <stop offset=".78" stop-color="#F99C4D"/>
      <stop offset=".87" stop-color="#F8924F"/>
      <stop offset="1" stop-color="#F8924F"/>
    </linearGradient>
    <linearGradient id="paint35_linear" x1="11238.7" x2="11262.2" y1="14286.2" y2="15803.3" gradientUnits="userSpaceOnUse">
      <stop stop-color="#FFDB44"/>
      <stop offset="1" stop-color="#FEEF06"/>
    </linearGradient>
    <linearGradient id="paint36_linear" x1="11185" x2="11187.4" y1="8337.48" y2="8607.62" gradientUnits="userSpaceOnUse">
      <stop stop-color="#FFDB44"/>
      <stop offset="1" stop-color="#FEEF06"/>
    </linearGradient>
    <linearGradient id="paint37_linear" x1="7150.59" x2="7152.36" y1="2195.33" y2="2423.96" gradientUnits="userSpaceOnUse">
      <stop stop-color="#F36F56"/>
      <stop offset=".31" stop-color="#F99C4C"/>
      <stop offset=".55" stop-color="#FDB946"/>
      <stop offset=".68" stop-color="#FFC444"/>
      <stop offset=".8" stop-color="#FFC244"/>
      <stop offset=".87" stop-color="#FEBA46"/>
      <stop offset=".92" stop-color="#FCAD49"/>
      <stop offset=".96" stop-color="#F99A4D"/>
      <stop offset="1" stop-color="#F57E53"/>
    </linearGradient>
    <linearGradient id="paint38_linear" x1="794.294" x2="26895.5" y1="19324.3" y2="19324.3" gradientUnits="userSpaceOnUse">
      <stop stop-color="#FCB148"/>
      <stop offset=".05" stop-color="#FDBA46"/>
      <stop offset=".14" stop-color="#FFC244"/>
      <stop offset=".32" stop-color="#FFC444"/>
      <stop offset=".48" stop-color="#FDB946"/>
      <stop offset=".78" stop-color="#F99C4D"/>
      <stop offset=".87" stop-color="#F8924F"/>
      <stop offset="1" stop-color="#F8924F"/>
    </linearGradient>
    <linearGradient id="paint39_linear" x1="13965.2" x2="13988.8" y1="13938.7" y2="15455.8" gradientUnits="userSpaceOnUse">
      <stop stop-color="#FFDB44"/>
      <stop offset="1" stop-color="#FEEF06"/>
    </linearGradient>
    <linearGradient id="paint40_linear" x1="13914.2" x2="13916.7" y1="8133.62" y2="8403.77" gradientUnits="userSpaceOnUse">
      <stop stop-color="#FFDB44"/>
      <stop offset="1" stop-color="#FEEF06"/>
    </linearGradient>
    <linearGradient id="paint41_linear" x1="4472.5" x2="4474.27" y1="2358.58" y2="2587.21" gradientUnits="userSpaceOnUse">
      <stop stop-color="#F36F56"/>
      <stop offset=".31" stop-color="#F99C4C"/>
      <stop offset=".55" stop-color="#FDB946"/>
      <stop offset=".68" stop-color="#FFC444"/>
      <stop offset=".8" stop-color="#FFC244"/>
      <stop offset=".87" stop-color="#FEBA46"/>
      <stop offset=".92" stop-color="#FCAD49"/>
      <stop offset=".96" stop-color="#F99A4D"/>
      <stop offset="1" stop-color="#F57E53"/>
    </linearGradient>
    <linearGradient id="paint42_linear" x1="-624.073" x2="25477.7" y1="18851.9" y2="18851.9" gradientUnits="userSpaceOnUse">
      <stop stop-color="#FCB148"/>
      <stop offset=".05" stop-color="#FDBA46"/>
      <stop offset=".14" stop-color="#FFC244"/>
      <stop offset=".32" stop-color="#FFC444"/>
      <stop offset=".48" stop-color="#FDB946"/>
      <stop offset=".78" stop-color="#F99C4D"/>
      <stop offset=".87" stop-color="#F8924F"/>
      <stop offset="1" stop-color="#F8924F"/>
    </linearGradient>
    <linearGradient id="paint43_linear" x1="12546.9" x2="12570.4" y1="13590" y2="15107.1" gradientUnits="userSpaceOnUse">
      <stop stop-color="#FFDB44"/>
      <stop offset="1" stop-color="#FEEF06"/>
    </linearGradient>
    <linearGradient id="paint44_linear" x1="12495.1" x2="12497.5" y1="7929.39" y2="8199.5" gradientUnits="userSpaceOnUse">
      <stop stop-color="#FFDB44"/>
      <stop offset="1" stop-color="#FEEF06"/>
    </linearGradient>
    <linearGradient id="paint45_linear" x1="5865.91" x2="5867.68" y1="2524.36" y2="2753.2" gradientUnits="userSpaceOnUse">
      <stop stop-color="#F36F56"/>
      <stop offset=".31" stop-color="#F99C4C"/>
      <stop offset=".55" stop-color="#FDB946"/>
      <stop offset=".68" stop-color="#FFC444"/>
      <stop offset=".8" stop-color="#FFC244"/>
      <stop offset=".87" stop-color="#FEBA46"/>
      <stop offset=".92" stop-color="#FCAD49"/>
      <stop offset=".96" stop-color="#F99A4D"/>
      <stop offset="1" stop-color="#F57E53"/>
    </linearGradient>
    <linearGradient id="paint46_linear" x1="-46549.5" x2="-36324.4" y1="80650.6" y2="94920.9" gradientUnits="userSpaceOnUse">
      <stop stop-color="#FCB148"/>
      <stop offset=".05" stop-color="#FDBA46"/>
      <stop offset=".14" stop-color="#FFC244"/>
      <stop offset=".32" stop-color="#FFC444"/>
      <stop offset=".48" stop-color="#FDB946"/>
      <stop offset=".78" stop-color="#F99C4D"/>
      <stop offset=".87" stop-color="#F8924F"/>
      <stop offset="1" stop-color="#F8924F"/>
    </linearGradient>
    <linearGradient id="paint47_linear" x1="-38036.6" x2="-44682.9" y1="78100.2" y2="84747.2" gradientUnits="userSpaceOnUse">
      <stop stop-color="#FFDB44"/>
      <stop offset="1" stop-color="#FEEF06"/>
    </linearGradient>
    <linearGradient id="paint48_linear" x1="-37791.1" x2="-39835.6" y1="77955.4" y2="80000.5" gradientUnits="userSpaceOnUse">
      <stop stop-color="#FFDB44"/>
      <stop offset="1" stop-color="#FEEF06"/>
    </linearGradient>
    <linearGradient id="paint49_linear" x1="46980.1" x2="48975.7" y1="2646.62" y2="642.381" gradientUnits="userSpaceOnUse">
      <stop stop-color="#F36F56"/>
      <stop offset=".31" stop-color="#F99C4C"/>
      <stop offset=".55" stop-color="#FDB946"/>
      <stop offset=".68" stop-color="#FFC444"/>
      <stop offset=".8" stop-color="#FFC244"/>
      <stop offset=".87" stop-color="#FEBA46"/>
      <stop offset=".92" stop-color="#FCAD49"/>
      <stop offset=".96" stop-color="#F99A4D"/>
      <stop offset="1" stop-color="#F57E53"/>
    </linearGradient>
  </defs>
</svg>
