<svg xmlns="http://www.w3.org/2000/svg" width="170" height="166" fill="none" viewBox="0 0 170 166">
  <path fill="#F2F2F2" fill-opacity=".28" fill-rule="evenodd" d="M28.25 15.96a55.217 55.217 0 00-2.053 14.963c0 30.39 38.966 25.011 52.682 22.198 30.3 0 24.859 29.108 33.795 22.779.113-.403.222-.806.326-1.212-6.089 23.734-27.57 41.272-53.136 41.272C29.564 115.96 5 91.325 5 60.936c0-18.583 9.185-35.014 23.25-44.976z" clip-rule="evenodd"/>
  <path fill="#2F80ED" fill-rule="evenodd" d="M60.5 121.96c33.413 0 60.5-27.087 60.5-60.5 0-10.57-2.133-19.566-6.896-28.212C103.808 14.56 83.344.96 60.5.96c-4.97 0-9.799.6-14.42 1.729-17.093 4.18-30.617 14.369-38.557 29.618C3.177 40.655 0 51.397 0 61.46c0 23.602 11.947 43.318 31.66 53.29 8.195 4.146 19.029 7.21 28.84 7.21zm0-8.777c9.8 0 18.964-2.726 26.774-7.46 7.704-4.67 14.297-10.354 18.679-18.245 4.126-7.428 6.27-16.919 6.27-26.018 0-18.157-10.795-34.657-24.949-43.886-8.114-5.29-16.366-7.837-26.774-7.837a51.499 51.499 0 00-31.66 10.82C16.633 30.016 8.776 44.82 8.776 61.46c0 8.592 1.623 15.44 5.33 22.57 5.443 10.472 14.836 20.101 25.704 24.849a51.55 51.55 0 0020.689 4.304z" clip-rule="evenodd"/>
  <path fill="#2F80ED" d="M158.457 164.028L100 106.998l4.385-5.038 63.117 51.863c2.987 2.455 3.349 6.914.796 9.822a6.779 6.779 0 01-9.841.383z"/>
  <path fill="#fff" fill-rule="evenodd" d="M109.55 32.704c-1.575 1.352-3.526-3.057-1.992-3.713.664-.284 2.292 1.44 2.439 2.651.014.207-.019.414-.098.6a1.134 1.134 0 01-.349.462zM9.013 85.959c-1.05-.805-1.874-2.948-2.593-5.104-.306-.925-.768-2.435 0-2.814.894-.46 1.68 1.164 1.956 1.743A16.4 16.4 0 0110 85.426a1.15 1.15 0 01-.428.405 1.066 1.066 0 01-.56.128zM162.891 163.937c.329-.084.954-.431.744-1.061-.289-.849-1.312-.236-2.847-1.521-.879-.736-1.69-2.215-2.475-1.58-1.109.869.802 2.925 1.605 3.285.422.192.863.339 1.234.485.631.222 1.107.554 1.739.392z" clip-rule="evenodd"/>
</svg>
