<svg xmlns="http://www.w3.org/2000/svg" width="192" height="186" fill="none" viewBox="0 0 192 186">
  <g clip-path="url(#clip0)">
    <path fill="#C1D5E8" fill-rule="evenodd" d="M127.935 0c3-.19 6.52 1 9.17 2.16 7.81 3.46 15.29 7.58 22.41 11.59 2.34 1.32 4.74 2.8 7.26 4.08 5.06 2.56 9.84 4.59 14.9 7.77 2.73 1.71 5.67 3.77 6.75 6.49 2 5.12-.47 11.48-2.29 15.16-2.17 4.37-4.43 8.46-6.5 12.48-4.35 8.47-8.53 16.16-13.11 24.83-4.58 8.67-8.68 16.94-12.74 25.22-3 6.15-6.53 12.54-9.8 18.72-1.84 3.46-3.34 6.87-7 8.28a8.833 8.833 0 01-3.56.38c-3-.31-5.86-2.06-8.54-3.31-2.68-1.25-5.34-2.73-7.76-4.08-9.74-5.41-21.29-10.63-30.95-16.43-4.66-2.79-10.24-6.15-12.61-11-2.72-5.52.85-13.25 3.06-17.7 2.21-4.45 4.31-8.17 6.49-11.85 2.36-4 4.64-8 6.75-11.71a269.003 269.003 0 0012.74-24.07c1.79-4.06 4-8.59 6-12.36 3-5.7 6.44-12 10.06-17.57a23.862 23.862 0 014.08-5.09 8.82 8.82 0 015.19-1.99z" clip-rule="evenodd"/>
    <path fill="#fff" d="M155.915 20.64c.11 0 .27 0 .28.13 1.9-.37 2.8-2.42 3.62-3.87.4-.7.85-1.46 1.21-2.26l-1.51-.87-.82-.46c-.49.75-1 1.57-1.39 2.38-.77 1.46-2.07 3.19-1.39 4.95zM151.315 28.52a45.269 45.269 0 00-3.48 5.75c-.62 1.4-.71 2.87.56 2.94 1 0 1.81-1.64 2.22-2.27.68-1 1.38-1.93 1.82-2.67 1.22-2.1 2.5-3.75 2.36-6.29-1.73-1.28-2.71 1.36-3.48 2.54zM143.235 44a31.725 31.725 0 00-4.88 8c-.35.84-.84 2 .14 2.67 1.2.07 1.86-1.1 2.37-1.87.61-.93 1.06-1.93 1.53-2.81 1-1.85 2.42-3.85 2.37-6-.3-.23-1.28-.42-1.53.01zM132.775 62.07a24.102 24.102 0 00-2.5 4.27c-.45.81-2.74 3.73-1.4 4.55.78.47 2-.85 2.37-1.34a23.637 23.637 0 001.53-2.55c1.12-1.8 2.31-3.38 2.23-5.48-.79-.6-1.69 0-2.23.55zM124.835 78.91c0 .17-.25.12-.28.26a12.987 12.987 0 00-3.48 4.68c-.52 1-2.92 4.78-1.53 5.48 1 .52 1.87-.92 2.36-1.61a36.214 36.214 0 003.07-5.34c.46-.93 1.27-1.91 1-3.07a1.8 1.8 0 00-1.14-.4zM114.795 97.08a39.012 39.012 0 00-3.06 4.68c-.45.8-3 4.63-1.12 4.94.92.15 1.68-1.14 2.1-1.74.58-.83 1.12-1.76 1.53-2.4 1.12-1.76 2.26-3.34 2.09-5.48-.3-.27-1.28-.45-1.54 0zM106.575 114.72c-.3-.27-1.28-.45-1.53 0a13.174 13.174 0 00-2.65 4c-.485.889-.89 1.819-1.21 2.78l2 1a15.984 15.984 0 001.76-2.83c.88-1.67 1.79-3.11 1.63-4.95z"/>
    <path fill="#334F70" fill-rule="evenodd" d="M129.965 102.78c-.24.94-1.39.82-2 1-4.56 1.3-8.83 4.25-8.94 10.23a10.185 10.185 0 003.368 7.863 10.186 10.186 0 008.172 2.527 9.78 9.78 0 006.34-3.32c.53-.59 1-1.87 2.31-1.3 1.1 2.13-1.31 3.77-2.74 4.76a12.583 12.583 0 01-13.542.43 12.58 12.58 0 01-6.078-12.11c.48-5.11 4.7-10.08 10-10.67a4.004 4.004 0 013.11.59z" clip-rule="evenodd" opacity=".38"/>
    <path fill="#fff" fill-rule="evenodd" d="M128.665 107a9.427 9.427 0 014.76.72 7.76 7.76 0 013.6 8.36c-.84 3.22-6.22 7.37-11 5a7.941 7.941 0 01-3.61-4.47 8.068 8.068 0 014.33-9.37 7.625 7.625 0 011.92-.24z" clip-rule="evenodd"/>
    <path fill="#334F70" fill-rule="evenodd" d="M128.805 108c1.49 2.1 2.37 5.45 2.89 8.65.15.95.72 2.21-.15 3-1.22.27-1.52-1.08-1.87-2-.35-.92-.62-2-.87-2.88-.53-2-1.34-4.9-1-6.35a.397.397 0 01.29-.43l.71.01zM145.205 77.77c-.24.94-1.4.83-2 1-4.58 1.31-8.89 4.23-8.96 10.23a10.189 10.189 0 003.36 7.874 10.178 10.178 0 008.18 2.526 9.77 9.77 0 006.34-3.31c.53-.59 1-1.87 2.31-1.3 1.1 2.13-1.31 3.76-2.74 4.76a12.583 12.583 0 01-13.542.43 12.582 12.582 0 01-6.078-12.11c.48-5.11 4.7-10.09 10-10.68a4.047 4.047 0 013.13.58z" clip-rule="evenodd" opacity=".38"/>
    <path fill="#fff" fill-rule="evenodd" d="M143.905 82a9.53 9.53 0 014.76.72 7.783 7.783 0 013.65 8.28c-.84 3.21-6.22 7.36-11 5a8 8 0 01-3.6-4.48 8.093 8.093 0 014.32-9.37 7.814 7.814 0 011.87-.15z" clip-rule="evenodd"/>
    <path fill="#334F70" fill-rule="evenodd" d="M144.045 83c1.49 2.1 2.37 5.45 2.89 8.65.15 1 .71 2.21-.15 3-1.22.27-1.52-1.08-1.87-2-.35-.92-.62-2-.87-2.88-.53-2-1.34-4.9-1-6.34a.409.409 0 01.27-.43h.73zM158.145 53c-.24.95-1.39.83-2 1-4.56 1.3-8.83 4.25-8.94 10.24a10.186 10.186 0 0011.54 10.38 9.77 9.77 0 006.34-3.31c.53-.59 1-1.87 2.31-1.3 1.1 2.13-1.31 3.77-2.74 4.76a12.582 12.582 0 01-19.64-11.65c.48-5.11 4.7-10.09 10-10.67a4.082 4.082 0 013.13.55z" clip-rule="evenodd" opacity=".38"/>
    <path fill="#fff" fill-rule="evenodd" d="M156.845 57.2a9.53 9.53 0 014.76.73 7.767 7.767 0 013.6 8.36c-.84 3.21-6.22 7.36-10.95 5a7.94 7.94 0 01-3.61-4.47 8.09 8.09 0 014.33-9.38 7.65 7.65 0 011.87-.24z" clip-rule="evenodd"/>
    <path fill="#334F70" fill-rule="evenodd" d="M156.995 58.21c1.48 2.1 2.36 5.45 2.88 8.66.15.94.72 2.2-.15 3-1.22.27-1.52-1.07-1.87-2-.35-.93-.62-2-.86-2.89-.54-2-1.35-4.9-1-6.34a.41.41 0 01.29-.44l.71.01zM171.875 26.28c-.24.95-1.39.83-2 1-4.56 1.3-8.82 4.25-8.94 10.24a10.18 10.18 0 0011.54 10.38 9.711 9.711 0 006.34-3.32c.53-.59 1-1.86 2.31-1.29 1.11 2.13-1.3 3.76-2.74 4.76a12.57 12.57 0 01-19.61-11.69c.47-5.11 4.69-10.08 9.95-10.66a4.002 4.002 0 013.15.58z" clip-rule="evenodd" opacity=".38"/>
    <path fill="#fff" fill-rule="evenodd" d="M170.575 30.46a9.51 9.51 0 014.76.72 7.777 7.777 0 013.61 8.37c-.85 3.21-6.23 7.36-11 5a7.88 7.88 0 01-3.61-4.47 8.1 8.1 0 014.33-9.37 7.648 7.648 0 011.91-.25z" clip-rule="evenodd"/>
    <path fill="#334F70" fill-rule="evenodd" d="M170.725 31.47c1.48 2.1 2.36 5.45 2.88 8.65.15 1 .72 2.21-.14 3-1.22.27-1.53-1.08-1.88-2-.35-.92-.62-2-.86-2.88-.53-2-1.35-4.9-1-6.35a.391.391 0 01.29-.43l.71.01zM94.025 83.73c-.24 1-1.4.84-2 1-4.58 1.32-8.85 4.27-8.96 10.27a10.19 10.19 0 0011.53 10.39 9.819 9.819 0 006.35-3.32c.53-.59 1-1.87 2.31-1.3 1.1 2.13-1.31 3.77-2.74 4.76a12.572 12.572 0 01-18.356-4.748 12.572 12.572 0 01-1.254-6.952c.47-5.11 4.69-10.08 10-10.67a4.08 4.08 0 013.12.57z" clip-rule="evenodd" opacity=".38"/>
    <path fill="#fff" fill-rule="evenodd" d="M92.725 87.92a9.42 9.42 0 014.76.72 7.769 7.769 0 013.6 8.36c-.84 3.22-6.23 7.37-11 5a7.998 7.998 0 01-3.6-4.47 8.07 8.07 0 014.33-9.37 7.652 7.652 0 011.91-.24z" clip-rule="evenodd"/>
    <path fill="#334F70" fill-rule="evenodd" d="M92.865 88.92c1.45 2.08 2.37 5.46 2.89 8.66.15 1 .72 2.21-.14 3-1.23.27-1.53-1.08-1.88-2-.35-.92-.62-2-.87-2.89-.53-2-1.34-4.89-1-6.34a.42.42 0 01.29-.44l.71.01zM109.315 58.73c-.24.94-1.4.83-2 1-4.63 1.27-8.9 4.27-9 10.27a10.18 10.18 0 0011.53 10.38 9.772 9.772 0 006.35-3.31c.53-.6 1-1.87 2.31-1.3 1.1 2.13-1.31 3.76-2.74 4.76a12.579 12.579 0 01-19.63-11.71c.48-5.1 4.7-10.08 10-10.67a4.048 4.048 0 013.18.58z" clip-rule="evenodd" opacity=".38"/>
    <path fill="#fff" fill-rule="evenodd" d="M107.965 62.91a9.53 9.53 0 014.76.72 7.783 7.783 0 013.59 8.37c-.84 3.21-6.23 7.36-11 5a8 8 0 01-3.6-4.48 8.08 8.08 0 014.32-9.37 7.811 7.811 0 011.93-.24z" clip-rule="evenodd"/>
    <path fill="#334F70" fill-rule="evenodd" d="M108.105 63.92c1.49 2.1 2.37 5.45 2.89 8.65.15 1 .71 2.21-.15 3-1.22.27-1.52-1.08-1.87-2-.35-.92-.62-2-.87-2.88-.53-2-1.34-4.9-1-6.35a.399.399 0 01.29-.43l.71.01zM122.205 34c-.24.94-1.39.83-2 1-4.56 1.31-8.83 4.25-8.94 10.24a10.186 10.186 0 0011.54 10.38 9.77 9.77 0 006.34-3.31c.53-.59 1-1.87 2.31-1.3 1.1 2.13-1.31 3.76-2.74 4.76a12.57 12.57 0 01-19.61-11.68c.47-5.11 4.69-10.09 10-10.68a4.079 4.079 0 013.1.59z" clip-rule="evenodd" opacity=".38"/>
    <path fill="#fff" fill-rule="evenodd" d="M120.905 38.17a9.41 9.41 0 014.76.71 7.773 7.773 0 013.6 8.37c-.84 3.21-6.23 7.36-11 5a7.999 7.999 0 01-3.6-4.47 8.103 8.103 0 014.33-9.38 7.223 7.223 0 011.91-.23z" clip-rule="evenodd"/>
    <path fill="#334F70" fill-rule="evenodd" d="M121.045 39.17c1.49 2.1 2.37 5.45 2.89 8.66.15.94.72 2.2-.14 3-1.23.27-1.53-1.08-1.88-2-.35-.92-.62-2-.87-2.88-.53-2-1.34-4.9-1-6.34a.39.39 0 01.29-.44h.71zM135.935 7.24c-.24.94-1.39.83-2 1-4.55 1.3-8.83 4.25-8.94 10.24a10.181 10.181 0 0011.52 10.39 9.732 9.732 0 006.34-3.32c.53-.58 1-1.86 2.31-1.29 1.11 2.13-1.3 3.76-2.74 4.75a12.57 12.57 0 01-19.61-11.68c.47-5.11 4.69-10.08 9.95-10.67a4.082 4.082 0 013.17.58z" clip-rule="evenodd" opacity=".38"/>
    <path fill="#fff" fill-rule="evenodd" d="M134.635 11.42a9.51 9.51 0 014.76.72 7.766 7.766 0 013.61 8.37c-.85 3.21-6.23 7.36-11 5a7.88 7.88 0 01-3.61-4.47 8.1 8.1 0 014.33-9.37 7.648 7.648 0 011.91-.25z" clip-rule="evenodd"/>
    <path fill="#334F70" fill-rule="evenodd" d="M134.785 12.43c1.48 2.1 2.36 5.45 2.88 8.65.15 1 .72 2.21-.14 3-1.23.27-1.53-1.08-1.88-2-.35-.92-.61-2-.86-2.88-.53-2-1.35-4.9-1-6.35a.391.391 0 01.29-.43l.71.01z" clip-rule="evenodd" opacity=".38"/>
    <path fill="#9D9D9D" fill-rule="evenodd" d="M1.005 86.15l4.06 5.14c2 2.53 7.76 1.3 12.88-2.75 5.12-4.05 7.64-9.37 5.63-11.9l-4.06-5.13-18.51 14.64z" clip-rule="evenodd"/>
    <path fill="#CFCFCF" fill-rule="evenodd" d="M1.005 86.15l4.06 5.14c2 2.53 7.76 1.3 12.88-2.75 5.12-4.05 7.64-9.37 5.63-11.9l-4.06-5.13-18.51 14.64z" clip-rule="evenodd" opacity=".14"/>
    <path fill="#E0E0E0" fill-rule="evenodd" d="M19.515 71.51c2 2.52-.52 7.85-5.64 11.9-5.12 4.05-10.88 5.27-12.87 2.74-1.99-2.53.52-7.85 5.63-11.9 5.11-4.05 10.88-5.25 12.88-2.74z" clip-rule="evenodd"/>
    <path fill="#fff" d="M18.125 70.51a5.358 5.358 0 00-1.62-.31c-1 1-2.25 2.27-3.44 3.54-2 2.14-4.3 4.65-6.14 6.78-1.84 2.13-4.19 4.66-5.12 6.34a4 4 0 001.25.48c3.57-2.91 8.62-8.91 12.59-13.77.75-.92 1.82-2.05 2.48-3.06z"/>
    <path fill="#9D9D9D" fill-rule="evenodd" d="M68.925 54.63l.39 6.53c.2 3.22 5.64 5.49 12.15 5.09 6.51-.4 11.62-3.35 11.42-6.56l-.41-6.54-23.55 1.48z" clip-rule="evenodd"/>
    <path fill="#CFCFCF" fill-rule="evenodd" d="M68.925 54.63l.39 6.53c.21 3.22 5.64 5.5 12.15 5.09 6.51-.41 11.62-3.35 11.42-6.56l-.41-6.54-23.55 1.48z" clip-rule="evenodd" opacity=".14"/>
    <path fill="#E0E0E0" fill-rule="evenodd" d="M92.495 53.15c.2 3.22-4.91 6.16-11.42 6.57-6.51.41-12-1.88-12.15-5.09-.15-3.21 4.92-6.16 11.39-6.57 6.47-.41 12 1.88 12.18 5.09z" clip-rule="evenodd"/>
    <path fill="#fff" d="M91.915 51.54a5.08 5.08 0 00-1.15-1.17c-1.4.18-3.15.57-4.84.94-2.87.61-6.19 1.37-8.92 2.07-2.73.7-6.09 1.43-7.81 2.29.186.404.436.775.74 1.1 4.6-.35 12.16-2.4 18.2-4.13 1.18-.33 2.66-.64 3.78-1.1z"/>
    <path fill="#334F70" fill-rule="evenodd" d="M33.995 71.64a32.516 32.516 0 01-3.06-2.29c-2.9-2.7-5.07-7.54-.64-10 1.61-.89 4.23-.78 6.15-.12a44.85 44.85 0 019.87 5.63c3.31 2.4 7.52 5.57 8.58 8a5.7 5.7 0 01-3 7.57c-3.06 1.29-6.44-1-10.16-3.42-2.73-1.71-5.12-3.46-7.74-5.37z" clip-rule="evenodd"/>
    <path fill="#2F80ED" d="M30.935 69.35a32.516 32.516 0 003.06 2.29c1.38 1 2.69 2 4 2.91-.25-4 .74-9.09 7.11-10.5a41.11 41.11 0 00-8.69-4.81c-1.92-.66-4.54-.77-6.15.12-4.4 2.45-2.23 7.29.67 9.99z"/>
    <path fill="#fff" fill-rule="evenodd" d="M41.895 74c-.52-1.07-2.2-2.14-3.92-3.09-.73-.41-1.93-1-2.37-.44-.44.56.71 1.69 1.16 2a13.6 13.6 0 004.55 2.29 1.06 1.06 0 00.58-.76zM39.005 69.27c1.38-1.31-2-3.81-2.76-2.45-.35.59.81 2.41 1.8 2.72a1 1 0 00.96-.27z" clip-rule="evenodd"/>
    <path fill="#8EDCF4" d="M65.845 19.52a38.323 38.323 0 00-2.53 9.78c-.41 3.64.88 6.5 3.31 7.26 2.69.85 5.17-1.48 6.62-3.31 2-2.46 3.42-6 4.63-9.49-3.25-5.38-8.71-5.06-12.03-4.24z"/>
    <path fill="#25364F" d="M75.885 4.85a7.79 7.79 0 00-1.66.38c-3.29 1.57-5.39 7-6.87 10.58-.52 1.24-1 2.47-1.51 3.71 3.32-.82 8.78-1.14 12 4.24.48-1.4.93-2.8 1.36-4.13a35.514 35.514 0 002-7.77c.38-4.6-1.65-7.49-5.32-7.01z"/>
    <path fill="#fff" fill-rule="evenodd" d="M73.155 10.37c0 1.31-1.08 3.23-2.29 5.05-.51.77-1.37 2-2.12 1.63-.75-.37-.15-2 .12-2.59a14.88 14.88 0 013.3-4.56 1.13 1.13 0 01.99.47zM72.695 16.48c2 .58 0 4.75-1.47 3.81-.65-.4-.42-2.78.39-3.6a1.1 1.1 0 011.08-.21zM65.805 26.31c.74.14 1 1.2.8 2.28-.13.86-.79 2.45-1.69 2a2 2 0 01-.6-1.94c.16-1.05.53-2.51 1.49-2.34z" clip-rule="evenodd"/>
    <path fill="#9D9D9D" fill-rule="evenodd" d="M179.175 56.1l-5.86 2.9c-2.9 1.4-2.94 7.3-.09 13.17s7.5 9.48 10.4 8.07l5.89-2.86-10.34-21.28z" clip-rule="evenodd"/>
    <path fill="#CFCFCF" fill-rule="evenodd" d="M179.175 56.1l-5.86 2.9c-2.9 1.4-2.94 7.3-.09 13.17s7.5 9.48 10.4 8.07l5.89-2.86-10.34-21.28z" clip-rule="evenodd" opacity=".14"/>
    <path fill="#E0E0E0" fill-rule="evenodd" d="M189.485 77.34c-2.9 1.41-7.56-2.2-10.4-8.07-2.84-5.87-2.81-11.76.09-13.17 2.9-1.41 7.56 2.21 10.41 8.07 2.85 5.86 2.8 11.77-.1 13.17z" clip-rule="evenodd"/>
    <path fill="#fff" d="M190.755 76.2c.297-.47.519-.982.66-1.52-.71-1.22-1.74-2.69-2.72-4.12-1.65-2.41-3.61-5.2-5.3-7.46a52.829 52.829 0 00-5.08-6.37 3.89 3.89 0 00-.74 1.12c2.07 4.15 6.84 10.34 10.74 15.26.73.94 1.6 2.22 2.44 3.09z"/>
    <path fill="#9D9D9D" fill-rule="evenodd" d="M150.155 138.6l3.69 5.41c1.82 2.66 7.66 1.84 13-1.84s8.28-8.8 6.47-11.47l-3.69-5.41-19.47 13.31z" clip-rule="evenodd"/>
    <path fill="#CFCFCF" fill-rule="evenodd" d="M150.155 138.6l3.69 5.41c1.82 2.66 7.65 1.84 13-1.84s8.28-8.8 6.47-11.47l-3.69-5.41-19.47 13.31z" clip-rule="evenodd" opacity=".14"/>
    <path fill="#E0E0E0" fill-rule="evenodd" d="M169.665 125.29c1.82 2.67-1.08 7.81-6.46 11.48-5.38 3.67-11.23 4.49-13 1.83-1.77-2.66 1.08-7.8 6.47-11.48 5.39-3.68 11.17-4.49 12.99-1.83z" clip-rule="evenodd"/>
    <path fill="#fff" d="M168.315 124.2a5.45 5.45 0 00-1.59-.42c-1.11.88-2.41 2.1-3.68 3.28-2.15 2-4.62 4.34-6.61 6.34a52.874 52.874 0 00-5.55 6 3.76 3.76 0 001.21.56c3.76-2.65 9.22-8.27 13.53-12.84.84-.9 1.99-1.96 2.69-2.92z"/>
    <path fill="#334F70" fill-rule="evenodd" d="M152.535 108.43a33.464 33.464 0 00-3.08 2.28c-2.91 2.68-5.1 7.5-.69 10 1.6.9 4.22.81 6.14.16a44.423 44.423 0 009.89-5.57c3.33-2.37 7.56-5.52 8.62-8a5.678 5.678 0 00.131-4.407 5.695 5.695 0 00-1.21-1.896 5.693 5.693 0 00-1.851-1.277c-3-1.31-6.44 1-10.18 3.36-2.74 1.72-5.14 3.46-7.77 5.35z" clip-rule="evenodd"/>
    <path fill="#2F80ED" d="M149.455 110.71a33.6 33.6 0 013.08-2.28c1.38-1 2.7-2 4-2.88-.27 3.94.69 9.1 7.06 10.54a41.272 41.272 0 01-8.73 4.76c-1.92.65-4.54.74-6.14-.16-4.41-2.48-2.18-7.3.73-9.98z"/>
    <path fill="#fff" fill-rule="evenodd" d="M160.455 106.16c-.53 1.06-2.22 2.12-3.94 3.06-.74.41-1.94 1-2.38.42-.44-.58.73-1.68 1.18-2a13.493 13.493 0 014.53-2.27 1.074 1.074 0 01.61.79zM157.525 110.84c1.38 1.32-2 3.8-2.77 2.42-.35-.59.83-2.39 1.81-2.7a.996.996 0 01.96.28z" clip-rule="evenodd"/>
    <path fill="#8EDCF4" d="M135.415 136.74a37.65 37.65 0 017.75 6.5c2.43 2.73 3 5.8 1.49 7.84-1.7 2.24-5.07 1.76-7.32 1.12-3-.88-6.24-2.91-9.25-5.08-.5-6.25 4.15-9.12 7.33-10.38z"/>
    <path fill="#25364F" d="M118.755 130.56a6.654 6.654 0 011.57-.65c3.59-.62 8.44 2.6 11.72 4.66 1.14.72 2.27 1.43 3.37 2.17-3.18 1.24-7.83 4.13-7.33 10.38-1.21-.87-2.39-1.75-3.51-2.59-2.11-1.6-4.48-3.15-6.14-5.16-2.95-3.56-2.96-7.09.32-8.81z"/>
    <path fill="#fff" fill-rule="evenodd" d="M124.165 133.49c.73 1.09 2.74 2 4.78 2.79.87.34 2.29.86 2.68.12.46-.9-1.05-1.75-1.6-2.05a15.18 15.18 0 00-5.32-1.83 1.17 1.17 0 00-.391.418 1.172 1.172 0 00-.149.552zM128.065 138.2c-1.32 1.66 2.74 3.89 3.41 2.27.29-.71-1.27-2.52-2.4-2.71a1.115 1.115 0 00-1.01.44zM139.375 142.26c-.53.53-.11 1.54.66 2.32.61.62 2.06 1.54 2.52.65a2 2 0 00-.64-1.91c-.72-.78-1.86-1.75-2.54-1.06z" clip-rule="evenodd"/>
    <path fill="#C1D5E8" fill-rule="evenodd" d="M41.995 15.05c3.81 1.62 5.19 4.67 3.41 8.51-2 4.18-6.08 6.75-8.87 8.52a60.879 60.879 0 01-25.22 9.22c-2 .26-3.82.64-5.44.19a7.51 7.51 0 01-3.93-2.89c-1.71-2.6-.99-6.43 1.91-10.26a20.6 20.6 0 014-3.55 58.109 58.109 0 0112.7-7c5.67-2.24 12.27-4.42 18.52-3.57a11 11 0 012.92.83z" clip-rule="evenodd"/>
    <path fill="#334F70" d="M50.085 36a6.079 6.079 0 00.23-5.32l-4.31-11.56a6.56 6.56 0 01-.6 4.44c-2 4.18-6.08 6.75-8.87 8.52a60.88 60.88 0 01-25.22 9.22c-2 .26-3.82.64-5.44.19a7.51 7.51 0 01-3.93-2.89 6.192 6.192 0 01-.53-1l4.49 11.83a5.25 5.25 0 00.72 1.62 7.47 7.47 0 003.91 2.95c1.62.45 3.49.07 5.44-.19a60.88 60.88 0 0025.24-9.27c2.8-1.77 6.93-4.34 8.87-8.54z"/>
    <path fill="#C1D5E8" d="M50.085 36c.087-.179.164-.362.23-.55-1.55-3.57-2.93-7.84-5.29-11.17a14 14 0 01-1.64 2.34c.06.15.13.3.19.44a75.306 75.306 0 004.41 8.8c.33.56.68 1.25 1.1 1.89.378-.557.712-1.142 1-1.75zM39.815 29.88c-.51.38-1 .73-1.51 1.06.327.344.628.712.9 1.1 1.21 1.93 2 4.32 3.25 6.42a35.2 35.2 0 002.12 3.13l.31.46c.55-.42 1.11-.88 1.65-1.37-.06-.09-.11-.19-.16-.28-1.62-3.07-3.99-7.83-6.56-10.52zM39.075 40c-1.16-2.64-2.33-5.47-3.85-7.08-.51.32-1 .62-1.54.91.05 1 .85 2 1.27 3 1.13 2.6 1.9 5.12 3.24 7.58.25.45.52 1 .85 1.52a64.476 64.476 0 002-1.23c-.14-.33-.29-.67-.41-1-.44-1.26-1.03-2.55-1.56-3.7zM33.995 45.78c-1-2.27-2-4.59-3-6.7a10.672 10.672 0 00-1.82-2.94c-.57.27-1.14.52-1.72.77.07.904.31 1.786.71 2.6a42.119 42.119 0 003.71 7.11 11.68 11.68 0 001.44 2.23c.58-.26 1.16-.53 1.74-.82-.27-.786-.626-1.54-1.06-2.25zM25.915 45.1a44.725 44.725 0 00-3.1-6.44c-.72.24-1.43.46-2.16.67.18.8.5 1.65.67 2.18a69.994 69.994 0 003.25 8.14c.315.704.672 1.389 1.07 2.05.85-.25 1.69-.53 2.52-.81-.22-.61-.54-1.23-.77-1.81-.5-1.29-.91-2.7-1.48-3.98zM17.965 43.65a10.49 10.49 0 00-1.79-3.2c-.51.11-1 .21-1.52.3a9.67 9.67 0 00.82 3.39 61.837 61.837 0 003.37 7.51c.23.44.47 1 .76 1.51.72-.13 1.42-.28 2.12-.44-.22-.59-.55-1.2-.77-1.78-.94-2.49-1.85-4.81-2.99-7.29zM12.775 51.67c-1-2.49-1.87-4.94-2.79-7.38-.3-.92-.674-1.812-1.12-2.67a9.998 9.998 0 01-1.89.05 15.23 15.23 0 001 2.42c.94 2.64 1.66 5.12 2.74 7.68.294.825.662 1.621 1.1 2.38.618.022 1.236-.004 1.85-.08a9.589 9.589 0 00-.89-2.4z"/>
    <path fill="#fff" fill-rule="evenodd" d="M5.595 36.94c.26 1.56-3.66.36-2.59-.77.55-.59 2.05.23 2.59.77zM7.365 39.06c-.26-.21-.68-.79-.22-1.27.61-.64 2.33-.24 3-.21.86 0 2.51-.28 3 .59.64 1.23-1.88 1.31-2.74 1.31-.47 0-.92 0-1.31-.08-.68-.03-1.24.07-1.73-.34zM33.135 16.49c.94-.69 5.66-.09 5.35 1.51-.25 1.29-4.4.66-5.29-.4-.23-.27-.28-.51-.06-1.11zM37.735 21.11c-.19-1.56 2.16-1.16 2.26-.23.13 1.26-2.09 1.61-2.26.23zM40.565 18.05c.11-1.48 3.67-.85 3.39.49-.11.56-.52.64-1.26.68-1.08.07-2.21-.13-2.13-1.17z" clip-rule="evenodd"/>
    <path fill="#2F80ED" fill-rule="evenodd" d="M67.695 85.47c1.49 2.34 2.43 4.53 4.72 5.61 3.19 1.5 8.62.49 11.58 2.16 2.18 1.23 3.83 4.39 5.35 7a307.8 307.8 0 014.46 7.89c3 5.48 6 10.82 8.91 15.79 1.64 2.8 2.8 5.59 4.08 8.28 2.63 5.56 4.93 11.07 7.38 17.32 1.2 3.05 3.11 8.13 1.79 11.72-1.32 3.59-6.38 6.14-10.19 8-10.68 5.28-19.9 9.85-30.94 14.64-2.91 1.26-6.58 2.81-10.07 1.41a13.653 13.653 0 01-4.33-3.7 52.121 52.121 0 01-4.2-7.13c-5.28-9.65-10.11-19.62-15.54-29.8-2.63-4.95-4.86-9.92-7.26-15.41-1.35-3.1-2.57-6.35-1.91-9.81.47-2.42 2-4.51 3.32-6.36 1.32-1.85 3-4 3.18-6.5.18-2.5-.9-4.15-1.53-6.11 7.46-3.91 15.3-7.5 23-11.34a73.001 73.001 0 018.2-3.66z" clip-rule="evenodd"/>
    <path fill="#C1D5E8" d="M78.395 164.56c2.94-1.4 6.06-3 8.15-5.1a10.251 10.251 0 001.91-2.8c1-2.61 0-5.78-.89-8.28-.66-1.91-1.5-3.76-2.17-5.35-3.18-7.53-5.93-13.33-9.16-20.63-1.73-3.89-4.14-8.85-9.3-8.78-3.65 0-7.07 2-10.06 3.18-3.16 1.24-6.23 2.47-9.43 4a96.224 96.224 0 00-13.13 6.82l-1.24.85.34.81c2.4 5.49 4.63 10.46 7.26 15.41 5.43 10.18 10.26 20.15 15.54 29.8l.3.56c4.33-2.06 9-4.6 12.82-6.42 3.14-1.47 5.98-2.63 9.06-4.07z"/>
    <path fill="#fff" fill-rule="evenodd" d="M56.415 131.48c1.6-.43 4.32-2.08 6.74-2.23 1.72-.1 3.89 5.06 3.52 7.44-.2 1.29-4.08 2.48-6 3.83.69 1.8 2.68 4.91 1.68 5.81a14.314 14.314 0 01-5.36 2.76c-1.23.22-2.72-3.57-4-5.36-1.83 1-4.28 2.73-6.13 1.84-1-.48-2.78-3.78-3.06-5.21-.53-2.69 3-4 4.9-5.2-.47-1.63-1.58-2.57-1.38-4.44.2-1.87 3-3.64 5.06-3.83 2.8-.26 3.11 2.69 4.03 4.59z" clip-rule="evenodd"/>
    <path fill="#334F70" fill-rule="evenodd" d="M73.765 147.37c-4.24 1.89-10.43 4.94-14.85 7.16a21.101 21.101 0 00-3.76 2.18c.65 1.16 1.28 2.33 1.91 3.49 1.71-.08 4.07-1.94 5.33-2.62 3.92-2.1 7.6-3.79 11.11-5.66.63-.34 1.35-.67 2-1.08-.57-1.15-1.19-2.31-1.74-3.47zM78.805 156.78c-.47-.77-.91-1.54-1.35-2.32-1.71.44-3.32 1.81-4.61 2.47-3 1.55-7.45 3.75-10.45 5.23-.83.4-2.24 1-3.31 1.56l.09.15c.56.91 1.12 1.82 1.69 2.73.33-.17.69-.36 1.09-.52 5.14-2.11 9-4.45 13.72-7a26.69 26.69 0 003.39-1.9l-.26-.4z" clip-rule="evenodd"/>
    <path fill="#fff" fill-rule="evenodd" d="M93.745 119.59c-1.68-1.21-3-4.43-4.15-7.67-.49-1.39-1.23-3.66 0-4.23 1.43-.69 2.69 1.75 3.13 2.62a23.519 23.519 0 012.6 8.48 1.802 1.802 0 01-1.58.8zM82.695 108.31c-2.68 2-6-4.52-3.39-5.49 1.13-.42 3.9 2.13 4.15 3.92a1.718 1.718 0 01-.76 1.57zM82.005 99.5c-.88.8-2.44.09-3.63-1.15-1-1-2.32-3.34-.89-4 .63-.31 2 .1 3 1.11 1.17 1.15 2.64 3.01 1.52 4.04zM68.595 179.18c-2.21 1.28 3.3 5 3.63 2.46.17-1.3-2.39-2.33-3.63-2.46zM64.135 179.14c.53.11 1.67.05 1.81-1 .18-1.42-2.08-3.16-2.85-4-.93-1.14-2.21-3.5-3.78-3.14-2.2.47.27 3.72 1.17 4.8.47.57 1 1.09 1.43 1.56.75.76 1.2 1.57 2.22 1.78z" clip-rule="evenodd"/>
    <path fill="#A2C6F8" fill-rule="evenodd" d="M68.045 78.22c-.67-1.24-1.1-2.28-1.94-3.56a9.46 9.46 0 00-3.36-3.35c-1.63-.71-3.6-.1-5.46.65-3.58 1.46-15.82 8-15.82 8-3.23 1.5-6.26 2.91-9.31 4.69-1.74 1-3.29 2.15-3.86 3.91-1 3.17 1.43 7.49 2 8.78 1.15 2.63 2.62 6.15 6.78 5.7a16.461 16.461 0 005-1.87c2.73-1.34 19.48-9.92 22.24-11.26a16.397 16.397 0 004.52-2.8c2.89-3.01.59-6.38-.79-8.89z" clip-rule="evenodd"/>
    <path fill="#2F80ED" d="M30.435 91c4.26-2.18 8.36-4.07 12.6-6.16 1.12-.56 2.54-1.37 3.88-2.19.46-.29 2.3-1 1.84-1.84-.2-.35-.94-.3-1.46-.17a8.491 8.491 0 00-1.49.56 137.517 137.517 0 00-15 6.57c-.88.44-1.8.88-2.71 1.36a7.46 7.46 0 00.11 2.93c.86-.38 1.61-.74 2.23-1.06zM61.215 73.47a30.936 30.936 0 00-6 3.46 3.14 3.14 0 00-.64.71.87.87 0 000 1c.59.65 2.14-.08 3.09-.5 1.18-.53 2.26-1 3.11-1.48 1.69-.87 3.35-1.68 5-2.48a12.118 12.118 0 00-1.85-2.1l-2.71 1.39zM37.975 92.75c1-.54 3.42-1.7 2.73-2.67-.54-.74-2.27.08-3.39.56-2.4 1-4.86 2.33-7 3.43-.34.17-.79.36-1.26.58.29.71.59 1.35.83 1.85a84.3 84.3 0 008.09-3.75zM66.145 81.47c-2.16 1-4.71 2.18-7 3.46-1.06.6-2.77 1.48-2.5 2.36.34 1.13 2.73-.07 3.77-.55a83.42 83.42 0 008.98-4.74c.13-.09.27-.17.41-.25a14.062 14.062 0 00-.72-1.64 21.263 21.263 0 00-2.94 1.36zM49.695 92.24c.47-.26 2.57-1.41 2.22-2.18-.47-1.07-2.24-.11-2.76.08a76.39 76.39 0 00-8.41 3.86 92.516 92.516 0 00-8.43 4.49l-1.16.73a9.665 9.665 0 001.46 2.2c1.08-.59 2.14-1.22 3.21-1.83 4.7-2.66 9.08-4.65 13.87-7.35zM50.575 84.14c-1.5.73-3.83 1.57-3.17 2.72 1.73.23 14.38-6.15 20.32-9.26-.3-.57-.56-1.11-.87-1.68-4.67 2.31-15.4 7.79-16.28 8.22z"/>
  </g>
  <defs>
    <clipPath id="clip0">
      <path fill="#fff" d="M0 0h191.37v185.87H0z" transform="translate(.315)"/>
    </clipPath>
  </defs>
</svg>
